<?xml version="1.0" encoding="utf-8"?>
<svg viewBox="-771.647 25.373 367.75 367.78" xmlns="http://www.w3.org/2000/svg">
  <circle class="a" cx="183.81" cy="183.41" r="123.29" transform="matrix(1, 0, 0, 1, -771.64679, 25.373386)" style="fill: rgb(29, 145, 92);"/>
  <path class="b" d="M60.39,188.83V187c.49-1,0-2,0-3-.06-1.34.44-2.66,0-4V178c.33-.12.23-.42.24-.65A120.53,120.53,0,0,1,64,154.13a122.73,122.73,0,0,1,40.6-65.2,127.44,127.44,0,0,1,20.22-13.86c.46,0,.91.06,1.19-.4.24-.07.5-.1.58-.4a.61.61,0,0,0,.58-.33,13.34,13.34,0,0,0,3-1.57,2.43,2.43,0,0,0,2.39-.13,1.36,1.36,0,0,1,1.1-.1c-.51.64.06.54.36.47a23.21,23.21,0,0,1,5.32-.53.53.53,0,0,0,.56-.31c-.22-.53-.89-.25-1.12-.71a6.45,6.45,0,0,0,2.64-.35,6.59,6.59,0,0,0,1.79-.64c.53-.39,1.06-1.15,1.73-.68.85.58.64-.42.7-.4.67.19,1.13-.55,1.88-.41a17.87,17.87,0,0,0-1.37,1.94c-.52.74-.42,1.81-1.2,2.32-1.9,1.24-3.82,2.41-5.66,3.75-1.33,1-3.1,1.34-4.06,2.9.55.18,1.13-1,1.63,0s.64,1.81-.46,2.5c-.5.31-.89.67-1.55.46-.33-.11-1,0-.92.37s-.17,1.27.56,1.58c.24.1.69,0,.52.47s-.48.23-.8.14-.84-.16-1.26-.24c-.19,0-.54-.06-.37-.34.4-.65-.31-.89-.41-1.34-.15-.61-.85-1-.77-1.7a1.42,1.42,0,0,0-1.72-1.73,52.17,52.17,0,0,0-6.63,1.42c-.45.11-.78.66-.5.78.78.33.77,1.63,1.84,1.35.1.58-.6.71-.57,1.31l1.15-.36c1.81-.56.19.58.52,1,.82-.88,2.23.08,3.09-1a.54.54,0,0,1,.81,0c.35.43.93.41,1.24.69-.06,1.1-1.25,1.57-1.18,2.82.05.84-1.11,1.18-1.83,1.62,1.67,1.83,2,4.11.9,5.61A10.89,10.89,0,0,0,133.34,93a1.22,1.22,0,0,0,0,1.38c.28.45.79.3.94.35-.4,2.15-2.76,2.59-3.63,4.53a3.83,3.83,0,0,1,2.78.84c.14.15.41.42.66.15.72-.77,1.82-1.17,2.13-2.33.08-.3.05-.71.44-.88,1.49-.65,2.39-2.06,3.74-2.89,2.17-1.33,3.55-3.36,5.05-5.37a2.1,2.1,0,0,0-1.42,0c-.23.07-.54.19-.63-.18s.21-.32.4-.4.39-.07.47-.18c.51-.8.82.37,1.39.1.88-.43-.42-1,.2-1.36a11.31,11.31,0,0,0,2.2-2.33c.3-.31.72-.68,1.11-.53,1.8.69,2.77-.52,3.84-1.55a3.33,3.33,0,0,1,1.66-1c1-.23,2-.14,2.93-.44,1.45-.46,2.81-1.21,4.24-1.75a1.17,1.17,0,0,0,.76-.89c.14-.54-.63-.31-.82-.69,1.41-.56,2.61-1.57,4.21-1.47-.3-1.18-.16-1.37,1-1.15.47.09,1.13,0,1.19.84,0,.49.49.65,1,.67a13.79,13.79,0,0,0,3.33-.26c.15,0,.43-.11.44-.17.09-1.64,1.58-1.06,2.06-.9,2,.64,3.94-.26,5.9-.1v0c.24.66-.45.57-.69.85s-1.23.45-1.08,1.24,1,1,1.68,1.12a2.28,2.28,0,0,0,1.5-.09c.18-.09.21-.11.44.14,1.28,1.36,1.75,1.27,3.16,0a2.13,2.13,0,0,1,1.84-.68c2.07.48,4-.15,6.06-.41.12,0,.29-.07.33-.16.42-.87,1.19-.6,1.86-.57a7,7,0,0,0,1.25.19c.47-.07.86.54,1.4,0s.12-1-.09-1.6c1,0,1.31.92,1.94,1.31s1.2-.3,1.79-.08v0s.07.07.08.1c.15.49-1,.77-.29,1.24.5.34.1-.68.62-.63.29,0,.59,0,.89,0s.94,0,1-.34c.36-1.17,1.64-1.27,2.31-2.19.85-1.19,3-1.06,4.48-.16-.83,0-1.57-.1-2.32-.11a1.91,1.91,0,0,0-1.68.66,7.26,7.26,0,0,1-3,2.38,1.36,1.36,0,0,0-.89,1.41c.1.73.77.36,1.23.29a20.45,20.45,0,0,1,3.62-.64,1.72,1.72,0,0,0,2-1.62c0-.53.61-.72.75-.33.53,1.46,2,2.34,2.4,3.83.08.27.09.47.43.47s.38-.24.38-.52c0-.77.42-.91,1.1-.79.48.08.88.13.66.77,1,.14,1.63.93,2.48,1.22,1.38.47-.19.51-.07.73l2.91,1.35a7.35,7.35,0,0,0,3,1c.43,0,1.1.37.7,1.06s-.75.06-1.11-.13c-.11-.06-.19-.2-.3-.23-.29-.09-.5.11-.67.29-.39.4.11.59.25.85s.09.73.36.46c.79-.78,1.81,0,2.66-.55.49-.32,1.11,0,1.41.71s2.59,2,3.07,1.72c1.15-.56,1.27,0,1.15.92-.06.43,0,.75.41,1a.64.64,0,0,0,1-.25c.4-.64.71-.25.87.18A1,1,0,0,1,233,91.56c-1.12-.19-2.2-.33-2.91.94a6,6,0,0,1,.07-1.1,3.31,3.31,0,0,0-2.46-3.69,1.61,1.61,0,0,0-1.92.58c-.88,1.17-.5,2.77-1.41,3.93,0,0,.21.33.32.5a.75.75,0,0,1,0,.91c-.37-.4-.69-.91-1.14-.77a1.15,1.15,0,0,0-.61,1.06c0,.58,1,1,.28,1.71.81.41.69,1.63,1.7,1.89.4.1.55.52.7.87a3.68,3.68,0,0,0,2.66,2.24c-.07.31-.83.3-.22.89s1.27.6,1.56,1.29a1.76,1.76,0,0,0,.2.2c.19-.13.06-.24,0-.36-.07-.28-.24-.56,0-.83.38.28.77.54,1.14.82,2.26,1.74,4.82,3.11,6.76,5.26a8.93,8.93,0,0,1,1.75,2.61,7.13,7.13,0,0,0,4.85,4.36,10.79,10.79,0,0,1,2.38.89c.63.37,1.13.56,1.72,0s.38-1.18,0-1.73a6.29,6.29,0,0,1-1.37-2.58c1.45.27,2.85.64,4.28.78.79.08,1.27.26,1.49,1a7.3,7.3,0,0,0,.54,1.13l0,0c.14.23.37.21.59.22.1.19.21.17.3,0,.39-.52.06-.79-.36-1-.23-.14-.52-.29-.17-.6l0,0c.48-.48.54-.9-.11-1.27-.38-.22-.86-.53-.84-.92,0-1.32-1-1.63-1.81-2.21-1.1-.77-2.48-1.06-3.36-2.27-.76-1-1.65-2.25-3.32-1.28-.37.22-.81,0-1.22-.19a9.72,9.72,0,0,1-4.45-3.34,3.41,3.41,0,0,0-2-1.44A4.3,4.3,0,0,1,234.36,99a1.16,1.16,0,0,1-.29-1.53c.35-.43.9-.1,1.34.25,1.18.92,2.43,1.74,3.59,2.69a4.73,4.73,0,0,0,2.61,1.23,3.07,3.07,0,0,1,1.57.44,1,1,0,0,0,1.37-.2,1,1,0,0,0,.19-1.39,15.36,15.36,0,0,0-1-1.64c-.59-.8-1-1.59-.18-2.48.11.22.16.52.34.65a3.68,3.68,0,0,1,1.47,2.65,2,2,0,0,0,1.63,2c0,1,.38,1.3,1.71,1.62-.44-.45-.47-1.11-1.23-.88,0-.29-1-.08-.37-.7a.66.66,0,0,0,.61.15c.18.07.23,0,.24-.18a1.81,1.81,0,0,1,1.23.22c1.1.41,1.11.45.36,1.24-.46.49,0,.8.29,1a8.83,8.83,0,0,0,2.78,1.55,5.84,5.84,0,0,1,2.85,2.48c.12.18.4.56,0,.61-1.13.15-.45.75-.33,1.17.21.78.86,1.37,1,2.21.05.42.51.77.3,1.21-.32.66-.77-.57-1.13,0l1.12,2.69c-.71-.32-1.21.27-1.84.2-.44,0-.58-.14-.52-.41.2-.87.18-1-.55-.76-.35.1-.54,0-.61-.17-.49-1.53-2.25-.82-3-2.08-.17,1,.52,1.23.62,1.79.27,1.47,1.5,2,2.68,2.22a11.81,11.81,0,0,1,2.72,1.09,1.61,1.61,0,0,1,.66.85c-.59.7.25,1.36,0,2.09a1,1,0,0,0,.92,1.26c.59,0,.72.25.78.72-.43.24-.62-.42-1.23-.13a7.53,7.53,0,0,1,2.75,5.22.73.73,0,0,0,.25.44c1.28.94,1,2.35,1.14,3.64,0,.15.11.3-.08.46-.6.47-.61.53.14.85s1.16,1.3.54,1.58c-1,.47-.69,1.2-.87,1.85s.24.76.59,1,.59-.09.84-.3a3.6,3.6,0,0,1,4.46.08c.88.88,1.67,1.85,2.48,2.79a1.25,1.25,0,0,1,.34,1.42c-1.09,1.82-1.81,3.87-3.35,5.41a3.52,3.52,0,0,0,.17,2.61,11.38,11.38,0,0,1,4.63,5.9c.11.31.27.77.61.77,1.44,0,1.57,1.35,2.28,2.17a5.43,5.43,0,0,0,.78-1.43c.21-1,.67-1.21,1.52-.73s1.2.11,1.07-.76a5,5,0,0,1,.71-3.2,2.3,2.3,0,0,0,.15-1.94,74.8,74.8,0,0,0-3.29-7.64,7.88,7.88,0,0,1-.64-2.59c-.06-1.07-.08-2.17-1.16-2.95-1.43-1-1.5-2-.35-3.4.31-.37.55-.71.31-1.13-.58-1-.42-2.26-1.1-3.25-.29-.43-.16-.83.18-1.27s.71-.11,1.06,0a3.06,3.06,0,0,0,3.63-1.1,2.16,2.16,0,0,1,3.29,0,4.28,4.28,0,0,1,.85,4c-.17.59-.22,1.54.61,1.46.5,0,1-.92,1.36-1.52s-.23-.85-.58-1.16a4.33,4.33,0,0,1-1.07-1.6c-.55-1.17-.9-2.63-2.48-3.09-.76-.22-1.07-1.26-.59-1.69.16-.14.54,0,.26-.43-.16-.21-.3-.47-.6-.41-.83.15-1.1,1.28-2.06,1.22-.06,1.42-.84,1.22-1.74.78a.89.89,0,0,0-.72-.08c-1.77.55-3-.31-3.09-2.19.39,0,.63.62,1.1.35.18-.47-.53-.65-.4-1.09a1.42,1.42,0,0,1,1.27.28.77.77,0,0,0,1.11-.19c.31-.66,1-.76,1.42-1.2.76-.84,1.31-.57,2,.09.35.35.68.92,1.22.85a5.72,5.72,0,0,1,3.62.84c.2.12.37.44.61.15a.61.61,0,0,0,.1-.7,2.56,2.56,0,0,0-2.21-1.71c.66-1.5.3-2-1.31-2-.6,0-1.84.35-1.47-1.15,0-.16-.2-.48-.39-.62-.73-.52-.77-1.37-1.07-2.1-.08-.18-.12-.45.09-.58s.4,0,.57.18c.4.32,1,1,1.17.88.78-.54.76,0,1,.5s.92-.44,1.38.13c.08.09.23-.36.26-.59a3.07,3.07,0,0,0-.9-2.74c-.34-.35-.69-.85-.44-1.25.35-.58-.15-.87-.19-1.3.31-.26.34.09.48.22a6.45,6.45,0,0,0,1.47,2,4.3,4.3,0,0,0-1.3-2.21l-.26-.21-.09-.06c.19-.15,0,.06.08.08s-.18.28-.37.12c-.55-1-1.67-1.64-1.77-3a40.15,40.15,0,0,1,6.09,6.22,6.4,6.4,0,0,1,1.49,2.66,17.71,17.71,0,0,0,1.6,3.74,10.08,10.08,0,0,1,.95,6.4,6.08,6.08,0,0,0,1.23,5c1,1.49,2.67,2.71,1.13,4.74-.28.37.6,2.1-1.07.95-.25-.18-.24.24-.35.39a4.21,4.21,0,0,0-.58,2.58c0,1-1.32.55-1.29,1.41-.67-.12-.72-.76-.79-1.19-.28-1.82-2.25-2.11-3-3.46l-.11.06.21-.21-.15-.11,0,.32c.31.64-1,.31-.62,1.11a5,5,0,0,1,.28,1.62,1.25,1.25,0,0,1,0,.38c-.47,2-1,4-1.37,6.05-.36,2.23-.82,4.55-.25,6.75.52,2-1.05,3.09-1.42,4.65,0,.09-.21.19-.31.19-1.76-.06-1,1-.72,1.72.47,1.23,1.2,2.43,1,3.79-.47,3.06-.11,5.9,1.93,8.36a1.64,1.64,0,0,1,.2.6,9.51,9.51,0,0,1-.14,5.79c-.93,2.34-.37,4.63-.21,6.84.23,2.94.26,5.88.51,8.81.09,1-.18,2.32,1.44,2.49a.49.49,0,0,1,.47.52c-.08,1.09.88,1.73,1.15,2.59a14.43,14.43,0,0,1,.69,7.17,3.92,3.92,0,0,0-.09.69c1.52.33,1.15,1.71,1.46,2.68.15.47.39.78.76.51a1.57,1.57,0,0,1,1.77.09c1.05.5,2.71.15,2.95,2,.08.63.71.63,1.25.38a7.72,7.72,0,0,1,2.69-.63,2.42,2.42,0,0,0,2.3-1.85A27.74,27.74,0,0,1,301.2,202a4.49,4.49,0,0,0,.66-1.5c.58-2.28,1.12-4.55,1.56-6.86a14.54,14.54,0,0,1,1.34-4.33l.64,1.59a31.24,31.24,0,0,0,1.26-5.67,109.84,109.84,0,0,0-1.81-23.53,120.61,120.61,0,0,0-11.68-34.4c-1.32-2.54-2.74-5-4.12-7.53,1.05.5,1.41,1.54,1.91,2.42a122.31,122.31,0,0,1,15.84,51,10.16,10.16,0,0,0,.43,3.46v13.66c-.58-.21-.37.23-.38.46-.07,1.67,0,3.35-.21,5a121.78,121.78,0,0,1-2.22,13.94q-9.8,43.58-44.92,71.14a121.6,121.6,0,0,1-52,23.7l-.49.14-.79.1a.52.52,0,0,0-.54.15c-1.84.15-3.71.18-5.53.49-1.07.18-2.11.56-3.21.66a.9.9,0,0,0-.78.14l-1.79.09c-.38,0-.77-.1-1.12.15l-1.19.08c-.61,0-1.26-.28-1.81.21h-2.58c-.06-.5.24-.52.63-.54a119.65,119.65,0,0,0,18.39-2,44.2,44.2,0,0,0,7.19-1.79c.31-.12.88-.18.79-.49-.19-.6.1-.59.49-.63,4.44-.52,8.23-2.73,12.11-4.69,1.55-.79,2.91-2,4.48-2.74a1.91,1.91,0,0,0,.92-.87c.4-1.16,1.39-1.66,2.29-2.31a64.68,64.68,0,0,1,5.85-3.42c2.91-1.7,6.09-2.88,8.39-5.59,2.08-2.45,4.22-4.76,4.91-8a2.92,2.92,0,0,1,.63-1.52c1.74-1.51,2.83-3.54,4.36-5.22a24.94,24.94,0,0,0,3.39-4.65,3.77,3.77,0,0,0,.28-3c-.29-1.06-.84-1.28-1.64-.65-1.13.89-2.32.75-3.63.56s-2.51-.69-3.61.13a8,8,0,0,1-3.5,1.46,6.19,6.19,0,0,0-3.34,1.44c-.13.12-.46.33-.46.05,0-1.58-1.07-1.09-1.82-1-2.15.38-4.87-.68-6.11,2.29.14-.52.29-1,.43-1.55a1.55,1.55,0,0,0,0-.22l-.15.07a2.31,2.31,0,0,0-.88,0c-1.21.61-3.2.35-3,2.6,0,.17-.23.36-.33.2-.45-.67-.9.27-1.31,0a3,3,0,0,1,1.06-2,9.84,9.84,0,0,0,1.28-1.45c.66-.88.55-1.18-.48-1.53-.27-.09-.29-.43-.46-.57-.76-.65-.38-2-1.42-2.4a12.64,12.64,0,0,0-8.64-.69c-2.92.86-4.29.67-6.48-1.29a1,1,0,0,0-.33-.18c-1.4-.41-2.71-1.37-4.38-.51.38-1.35-.15-1.88-1.34-1.9a6,6,0,0,0-1.4,0c-.66.15-1-.41-1.33-.81s.54-.14.43-.65c-1.32.41-2.77.16-3.94,1.27a2.7,2.7,0,0,1-3.15.23,1.62,1.62,0,0,0-1.19-.18c-.92.18-1.86.27-2.78.48-.41.09-.74.06-.83-.33-.3-1.3-1.33-1.3-2.32-1.32-.46,0-.83,0-1-.53-.06-.18,0-.64-.41-.45-.26.12-.79.2-.57.66.31.66-.23.74-.56.91a6.53,6.53,0,0,0-1.63.71c-.48.46-.56.17-.69-.17s-.72-.69.11-.94c.57-.17,1.13-.57.73-1.19s-1.08-.37-1.53.11c-1.51,1.64-3.61,1.85-5.58,2.26-1.45.3-1.91.47-2.05,1.88,0,.46-.23.6-.59.89-.81.66-2.07,1-2,2.43a16.68,16.68,0,0,0-2.47-2c-1.26-.67-2.48-1.45-4.14-.51a4.66,4.66,0,0,1-4,.27c-.87-.34-1.23-1.1-1.92-1.58-1.3-.88-2.41-2.08-1.68-3.94.55-1.42.14-3,1-4.43a1.14,1.14,0,0,0-.16-1.44,8.42,8.42,0,0,0-6-2.12c-1.7.06-3.55.17-5.14-1.09a2.47,2.47,0,0,0,1.47-2.3,4,4,0,0,1,.31-1.27c1.27.13,1-.91,1.25-1.55.43-1.09.29-2.42,1.36-3.24a1,1,0,0,0,.52-1.09c-.13-.5-.64-.55-1.1-.71-1.44-.49-2.9-.08-4.34-.22a1.55,1.55,0,0,0-1.9,1.36,4.14,4.14,0,0,1-1.65,2.64c-.82.57-1.15.56-1.83.14a1.93,1.93,0,0,0-1.35-.14c-1.09.16-2.4.46-3.26-.19-1.51-1.13-3.4-2.08-3.65-4.34a2.34,2.34,0,0,0-.51-1c-.91-1.21-.35-2.83-1.18-4.05a.28.28,0,0,1,0-.25c.78-1.7.45-3.79,1.7-5.31a4.87,4.87,0,0,0,.88-2.86c.19-2.15,1.11-3.15,3.29-3.28,1.12-.07,2-.34,1.83-2,.37.82.51,1,.76.88,1.82-.84,3.22,1.08,5,.74.2,0,.55.41.6.77.11.78.68.91,1.3.94.91,0,1.89-.32,2.69.59-.11-.71-1.16-1.25-.05-1.93.23-.14-.18-.39-.43-.41s-.69,0-1,0-.46-.05-.35-.37.28-.52.41-.38c.85.92,1.9,0,2.89.36s1.8,1,2.91.66a2.22,2.22,0,0,1,2.42,1.27c.48.81.93.71,1.53.46s1.2-.56,1.55-.11c.82,1.06,2,1.91,1.86,3.57a5,5,0,0,0,.49,2.84,14.4,14.4,0,0,0,2,3.41c.66.68,1.19.87,1.74.09a3.75,3.75,0,0,0,.64-1.79c.22-1.91-.63-3.58-1.13-5.31-.6-2.07-1.85-4.23-.12-6.16a18.62,18.62,0,0,1,5-4.05c1.13-.6,1.87-2,3.36-1.89.08,0,.25-.24.23-.27-.53-.79.09-.76.58-.88s.48-.55.54-.92a3.18,3.18,0,0,0-.69-2.76l.28-.2c1.31-1.34,2.14-2.79.95-4.63.61,0,.46.87,1.14.5a3.36,3.36,0,0,0,1.09-3.3,3.43,3.43,0,0,0,.64,0c.93-.11,2.14-.07,2.6-.84a2.21,2.21,0,0,1,2.37-1.31,1,1,0,0,0,1-.54c-1.22-.27-1.57-1.4-1.22-2.69.4-1.49,2-1.76,2.66-2.9,2.18,0,2.94-2.56,5-2.85,0,0,.07-.07.1-.08.23-.06.26-.6.72,0s-.08.57-.24.73a5.09,5.09,0,0,0-1.28,1.42,1.34,1.34,0,0,0,.51,1.8c.75.52.94-.24,1.26-.6s.76-1.25,1.31-1.54c1.73-.92,3.56-1.67,4.81-3.3.38-.51,1.36-1,0-1.45-.25-.09-.24-.32-.25-.54s.05-.78-.4-.8-.31.43-.42.7-.5.67-.51,1c0,.66-.28.9-.91,1.13a2.53,2.53,0,0,1-1.83.16c-2.3-.81-2.56-1.16-2.71-3.74-.68.23-1.41.59-1.84-.44a2.85,2.85,0,0,0,1.77-.61c.35-.33.91-.57.68-1.23a1.27,1.27,0,0,0-1.3-.85,2.85,2.85,0,0,0-1,.1,9.61,9.61,0,0,0-5.37,3.88l-.29-.22c.68-2.41,3.32-3.23,4.34-5.36.07-.16.35-.26.55-.3a22.7,22.7,0,0,1,5.68-.68,3.38,3.38,0,0,0,3.56-2,2.86,2.86,0,0,1,1.48-1.69,5.8,5.8,0,0,0,1.89-1.2c0,.85-.7,1.35-.86,2.19-.42,2.19-.42,4.48-1.44,6.54-.16.31,0,.57.18.84s.33.16.52,0c1.12-.6,2.41-.44,3.59-.81.38-.12.9-.32,1.22.05s-.32.71-.29,1.12c.77,0,.8,0,1.13-.79.16-.41.35-.66.8-.69s.46.34.41.68c.54-.23.68.57,1.22.46s.37-.54.47-.87c.31-1-.64-1.47-.92-2.14-.65,0-.12.8-.73.95-.35-.85.4-1.35.55-2-.45-.09-1.53.65-1.19-.6.28-1-.25-.88-.78-.82a3.93,3.93,0,0,0-1.2.39.75.75,0,0,1-1.06-.38c-.44-.85-.4-.88-1.36-.27.19-.8.38-1.53.54-2.27.3-1.33.29-1.33-.8-1.59.7-.86-.16-1.52-.27-2.28a1.57,1.57,0,0,0-1.74-1.58c-.43,0-1.13-.9-1.2-1.38a.56.56,0,0,0-.55-.47,11,11,0,0,1-4.23-1.61,1.63,1.63,0,0,1-1-1.92,1.15,1.15,0,0,0-.25-.95c-.65-1.22-1.74-2.07-2.45-3.23a25.36,25.36,0,0,0-2.1-2.62c-.21.64-.79.95-.62,1.62a3.62,3.62,0,0,1-1.72,3c-.12,0-.33.1-.35.07-.5-1-2.06-1-2.13-2.33,0-.77-.34-1.54-.33-2.26,0-1-.45-.93-1.07-.94s-.91-.18-1.21-.91-1.31-1.86-2.3-1.72a7.85,7.85,0,0,1-3.1-.26c-.93-.22-1.62.6-1.12,1.37a1.29,1.29,0,0,1,0,1.48,1.16,1.16,0,0,0,0,1.15c.46.94.68,2.17-.42,2.75s-.74,1.07-.13,1.66c.21.21.51.35.65.59,1.55,2.73.87,5.27-1.81,6.88a3.46,3.46,0,0,1-.57.3c-.21.09-.46.26-.35.45.78,1.34.28,2.89.73,4.24a1.46,1.46,0,0,1-.46,1.65c-.34.39-1,.4-1.17.94-.12.31-.38.24-.47.05-.57-1.16-1.64-2.07-1.8-3.44.47-.32.73.43,1.26.2-.1-.61-.25-1.13-1.08-1-.67.12-.11.52-.18.78a.4.4,0,0,1-.59-.44c.56-1.18-.14-2.48.36-3.61.35-.78-.08-1-.59-1.25a5.57,5.57,0,0,0-1.37-.3,6.86,6.86,0,0,1-4.3-2.8c-1-1.16-2.19-2.41-3.53-2.44s-1.1-.61-1.16-1.26a9.2,9.2,0,0,1,.1-1.65c0-.44-.1-.86-.53-.89-1.48-.1-1-1-.77-1.78a6.62,6.62,0,0,1,.83-1.86c1.27-1.79,2.6-3.51,4.91-4,.44-.1.36-.49.48-.8.29-.73.7-1.39,1.69-1.14.52.14.82-.21,1.23-.47,1-.63,1.08-1.86,1.91-2.58a7.58,7.58,0,0,1-1.4,4c.45.21,1.38-.15,1.07.94-.07.25.29.19.49.22a1.17,1.17,0,0,0,1.06-.61c.78-1,1.53-.89,2.3,0a1.92,1.92,0,0,0,.45.45c.44.26.56-.23.83-.38s.35-.35.1-.49c-1-.51-1-1.75-1.94-2.32a2.91,2.91,0,0,1-1.52-2.3c-.64-.11-.84.77-1.46.49.13-.21.38-.42.39-.63.08-1.73.76-.72,1.33-.32a1.08,1.08,0,0,0,1.49-.12c.66-.61,1.79-.78,1.8-2a.48.48,0,0,0-.23-.42c-1-.66-.73-1.14.16-1.68a.87.87,0,0,0,.15-1.32,8.83,8.83,0,0,1-1.18-1.19c-.64-.6-1.67-.44-1.74.22a5.59,5.59,0,0,1-1.51,3.71c-.46.46-.55.49-.87,0a1.44,1.44,0,0,1,0-1.45,1.7,1.7,0,0,0-.29-2l-.93.84c-.51-.66-.33-1.57-1-2.11-.18-.14,0-.33.1-.4,1-.53.53-1.27.32-2a5.85,5.85,0,0,1-.37-1.62c0-.75.53-1.79,1-1.74,1.31.16,1.47-1,2.2-1.46.18-.11.31-.31.09-.53a2.53,2.53,0,0,0-2.21-.77c-.75.08-.9.6-1,1.24a6.91,6.91,0,0,1-1.74,3.55c-1.63,1.73-1.66,1.28-.35,3.53.07.13.26.28.08.45-.75.72-.53,2.21-1.93,2.43-.22,0-.24.63-.64.34s-.23-.64-.12-1a.85.85,0,0,1,.74-.61c.65-.12.7-.51.58-1s-.29-1.28-.79-1.56-.69.51-1.11.68-1,.1-.5.75c.88,1.06-.58,1.24-.73,1.93-.08.4-.81.19-1.24,0a4.18,4.18,0,0,1-2.22-2.54c-.34-1.62-1.41-1.33-2.4-1.34-.34,0-1.09.08-.6.84.2.3,0,.49-.21.64a.34.34,0,0,1-.53-.17c-.33-1.11-1.29-1.14-2.15-1.23s-.95-.69-1.45-1c-.34-.2-.16-.42.11-.55,1.22-.58,1.31-1.05.25-2a4,4,0,0,1-1.37-2.51c-.16-1-.58-1.51-1.64-1a1,1,0,0,1-.3,0c-.22-.39.27-.55.19-.86-1.12,0-1.1,0-.68-1,.18-.45.28-.95.46-1.58a9.85,9.85,0,0,1-1.21.51c-.16,0-.58.08-.5-.14.4-1.24-.66-.71-1.07-.88s-1.21-.07-1.31-.3c-.56-1.3-1.49-.69-2.42-.53.1-1.2.09-2.35.14-3.43s-.5-1.72-.57-2.59c-.15-1.91-.57-3.84.42-5.67a.42.42,0,0,0-.3-.68c-.38-.08-.56-.49-.81-.67-.88-.67-1.56-1.92-3-1.41a.83.83,0,0,1-.91-.35c-.9-1.13-1.23-1.17-2.1,0s-1.95,1.64-2.71,2.69c-.2.28-.59.52-.85.18s-.31-.75.26-.92c.34-.11.55-.36.37-.68a3,3,0,0,0-1.35-1.32c-.69-.31-.73.32-1,.69-.07.12-.27.16-.42.23a2.3,2.3,0,0,0-.69,3.66c-.34.19-.67.36-1,.56-1.09.68-1.91.28-2-1,0-.25-.11-.49-.29-.5-1,0-2.15-.4-3,.13a25.9,25.9,0,0,0-3.07,2.51c-.29.24-.54.64-.31.88,1,1-.08,1.07-.61,1.31s-1.08.48-.71,1.36-.86,1.68-.06,2.58l-.16.17c-.85.9-4.41.77-5-.35s-1.79-1.08-2.39-2a.38.38,0,0,0-.65,0c-.23.32.07.45.23.61.48.48,1,1,1.46,1.43s.89,1.5,1.74,1.8c1.34.47,2.69.88,4,1.27.81.23,1.72.77,2.24-.49a.6.6,0,0,1,.55-.19,3.48,3.48,0,0,0,2.5,0,1.62,1.62,0,0,1,1.77.85,4.19,4.19,0,0,0-3.78.63c-.76.41-.37.76,0,.82,1.21.2,2.33,1.81,3.62.17a3.62,3.62,0,0,1,0,2.51,2.81,2.81,0,0,0,.1,2.11,6.13,6.13,0,0,1,.67,4,19.8,19.8,0,0,1-2.37,6.81c0,.1-.08.27-.05.29s.18,0,.21-.15c.51-.22.8-1,1.6-.56.14.08.53-.24.44.25-.06.33-.18.37-.52.17a.82.82,0,0,0-1.22.55c-.33,1.31-1.52,2.41-1,3.93.4,0,.41-.66,1-.56a1.43,1.43,0,0,0-.23,1.46.8.8,0,0,1-.36,1.27c-1.25.44-1.12,1.41-1.3,2.42-.24,1.36,0,2.84-.74,4.09a2.22,2.22,0,0,0,.07,2.28,13.43,13.43,0,0,1,.61,3c.22.9,1,1.64.64,2.72a6.12,6.12,0,0,1-1.31,2.62c.3-.92.27-1-.62-1.93.43-.12,1.21.17,1-.7-.42-2,.54-4.28-1-6.12-.25-.29-.06-1.06-.67-.89s-.35.79-.43,1.23c0,.22.12.48.17.73a30,30,0,0,0,.49,3.89c.13.41.12.83-.39,1a9.75,9.75,0,0,0-.35,1,10.66,10.66,0,0,1-2.36,4.85c-2.5,2.54-3.88,5.79-5.94,8.6-.07.1-.17.24-.15.34.36,1.56-1.08,2.88-.55,4.49.13.41-.54,1,.41,1.28.2.06-.87.65-.67,1.33.39,1.33-.55,2.63,0,4a2.47,2.47,0,0,1,0,1.65c-.36.88,0,1.39.52,2,1,1.29,2,2.61,2.09,4.31,0,2.15-.21,4.31-.11,6.46,0,.67-.38,1.44.13,2a5.89,5.89,0,0,1,.91,2.09c.66,2,.55,2.17-1.36,1.92,0,0,0,.07-.07.1s.34.05.21-.22l-.21.23c.12.11.31.21.33.35a7.59,7.59,0,0,0,1.65,3.07c.81,1.12,1.92,2.5.44,4-.23.23,0,.38.1.53a14.52,14.52,0,0,1,2.53,5.37c.37-.31,1.25-.13,1-.88s-.22-1.64-.94-2.18a1.06,1.06,0,0,1-.41-1.19,8,8,0,0,0,0-2.07,57.74,57.74,0,0,0-1.88-9,8,8,0,0,1,.17-5.38,3.43,3.43,0,0,1,1.82,3.81,8.55,8.55,0,0,0,.82,5.22c.7,1.38.94,2.92,1.65,4.27.36.68.77,1.16.16,1.88a.55.55,0,0,0,.13.71c1.11.93,1.36,2.31,1.91,3.54a37.75,37.75,0,0,1,2.25,5c.32,1.09,1.24,2.38,0,3.6-.68.64-.31,1.43,0,2.22.43,1.2,1.69,1.73,2.16,2.84a4.58,4.58,0,0,0,2.34,2.25,2.67,2.67,0,0,1,1,.6c2.53,3.17,6,5.15,9.41,7.15a1.85,1.85,0,0,0,1.47.22c2.32-.62,3.83.59,5.18,2.21s2.68,3.49,5.08,3.86a1.75,1.75,0,0,1,.75.48,8.94,8.94,0,0,0,3.38,1.64c.76.23,1.72-.28,2.06,1.19.23,1,1.47,1.73,2.34,2.48.6.53,1,.95.7,1.84-.25.74.58,1.78,1.31,1.6a2.39,2.39,0,0,1,2.75,1.55c.54,1.36,1.34,1.5,2.49,1.51s2.13,1.16,3.34,1.38c.39,1.72,1.33.54,2.44.51-1.36-.83-1.4-1.36-.08-1.65a1,1,0,0,0,.51-.37c.74-1,1.49-.51,2.05.09,1,1.07,1.22,2.7,2.57,3.53.07,0,.09.24.07.36a9.64,9.64,0,0,0,.19,2.68c.06.65-.49,1.39.25,2-.58.44-.63,1.48-1.58,1.46a1.38,1.38,0,0,0-1.48,1c-.29.63-.63,1.47-1.61,1.56a1.51,1.51,0,0,0-1.47,1.13,5.27,5.27,0,0,1-1.18,1.47,2.92,2.92,0,0,0,0,2.42,1.27,1.27,0,0,0,2.09,0c-.51,1-.5,1-2.68,2-.69.32-1,.6-.61,1.43.54,1.09,1,2.15,2.33,2.54A2,2,0,0,1,174,281.1a1.2,1.2,0,0,0,.74.66,3.26,3.26,0,0,1,1.68,1.69,9.36,9.36,0,0,0,1.4,1.8c.95,1.11,2.13,2,3.11,3,.41.46.12,1.16.81,1.49a15.18,15.18,0,0,0,2.92,1.29c2,.48,4,.87,6,1.36,2.61.63,3.12,1.34,3,3.71-.05.85-1,1.17-1,2a4.84,4.84,0,0,1-1.65,3.3c-.42.47-1,1.21-.87,1.67.27,1-.48,1.2-1,1.52a4.28,4.28,0,0,1-1.87.78c-1,.1-1.29.52-1.12,1.43h-10c-.16-.4-.51-.24-.78-.26a112,112,0,0,1-19.3-2.89q-59.68-15.07-85.29-71.08a115.82,115.82,0,0,1-9.88-39.92A11.73,11.73,0,0,0,60.39,188.83ZM185.85,80.62c0-.37.5-.56.36-1.16-.53.55-1.15.27-1.73.36-.28.05-.64,0-.69.4a1,1,0,0,0,.34.77c.44.49,1.05.1,1.51.4.05.83,1.06,1.15,1,2.09,0,.42.64.28,1,.08s.72-.57,1.09-.85a.45.45,0,0,0,0-.76C188,81.17,187.13,80.39,185.85,80.62ZM167.71,114.7c-.47.21-1.06.21-1.09,1,0,.2-.21.75-.59.69s-.28-.51-.27-.84c0-1.65-.54-2-2-1.22a3.32,3.32,0,0,0-.56.3c-.25.2-.82.22-.68.6s.26.82.73,1c.21,0,.56-.14.54.25s-1,0-.77.77c.19.53.68.57,1.18.55.66,0,1.32-.35,2,.1.42.29.94.68,1.43,0,.37-.53,1.12-.91.35-1.69-.33-.33-.13-.81-.13-1.23l.16-.15ZM183,133.43c.31.14.47-.36.81-.18a2.86,2.86,0,0,1,.89,4.76c-.37.41-.78.69-.16,1.2s0,.66-.26.85c-.65.4-1.34.13-2,.05-.24,0-.63-.34-.69-.12-.21.71-1.55.87-1,1.94s1.33.68,2,.41a2.18,2.18,0,0,1,1.82.08,8.66,8.66,0,0,1,2.65,2.06,10.84,10.84,0,0,0,4.59,2.31c.32.09.85.24,1-.16s-.2-.78-.54-1.06a10.85,10.85,0,0,1-2.38-2.19,12.19,12.19,0,0,1,2.73,1.25,1.28,1.28,0,0,0,1.44-.13,1.1,1.1,0,0,0,0-1.32c-.9-.88-1.1-2.28-2.4-2.88a1.75,1.75,0,0,1-1-2.29,3,3,0,0,1,1.9,1.42c.26.52,1.2,1,1.33.67.24-.68.85-.93,1.07-1.44s.5-1.84.23-2c-1.34-.88-2.5-2.2-4.27-2.25a1.71,1.71,0,0,1-1.65-1c-.33-.71.5-.74.77-1.09-.18-.4-.87-.46-.78-.93.22-1.13-.75-1.34-1.26-2-1.06-1.29-3.32-1.17-3.68-3.22a.33.33,0,0,0-.27-.2c-1,.28-2-.93-3,.07,0,0-.93.44-1,0s-.35-1-.15-1.48.23-.83-.13-1.06-.74.07-1.09.21a3.43,3.43,0,0,0-2.06,3.07c-.37-1.59.09-2.47,1.61-3.35a2.31,2.31,0,0,0-1.75-.26c-1.11.27-2.79,2.46-2.73,3.48a4.51,4.51,0,0,0,2.85,3.87c1.1.34,2.36.13,3.32,1,.44.43.85,0,1.17-.4.15-.17.39-.57.55-.24.42.86,1.84,1.17,1.37,2.5-.11-.08-.17,0-.17.07a.31.31,0,0,0,0,.12ZM201,128.92c1.17,1.2,1.18,1.38.07,2.52a1.1,1.1,0,0,0-.24.83,7.36,7.36,0,0,0,.64,2.72c.63,1.85,2.47,2.66,3.43,4.31s2.92,3,4.48,4.51a2.9,2.9,0,0,0,3,.92,2.23,2.23,0,0,1,1.84.33,1.69,1.69,0,0,0,1.83.08c.61-.44.42-1.25.12-1.77-.7-1.2-.22-2.86-1.54-3.8-.27-.19,0-.46.09-.69a3.56,3.56,0,0,0-1.09-3.94,4.33,4.33,0,0,1-.38-.47c.75-.5.2-1.83,1.37-2.1.6-.14.83-.69,1-1.21a4.64,4.64,0,0,0,.08-3.38,2.37,2.37,0,0,1,.49-2.64,6.18,6.18,0,0,0,1.3-5.19c0-.27-.07-.82-.56-.61s-1.48.14-2,1c.61-1-.65-1.15-.73-1.82.61-.18.89.32,1.3.49a.87.87,0,0,0,1.11-.34c.34-.4-.06-.58-.27-.83a3.91,3.91,0,0,0-3-1.2c.07-.47.68,0,.73-.51a2.09,2.09,0,0,0-1.42-1c-.53,0-.59-.37-.49-.69.37-1.12-1.16-1.44-1-2.45,0,0-.07-.09-.09-.08-.84.29-1-.55-1.55-.87a3.14,3.14,0,0,0-1.61-.7c-.5,0-.91.18-1.16-.35s.59-.48.61-1a3.49,3.49,0,0,0-.86-.48A7.36,7.36,0,0,1,202.7,106a9,9,0,0,1-1.62-2.3c-.32-.72-.79-1.15-1.59-.88s-.6,1.06-.65,1.66c0,.33.4.72-.21,1a3.06,3.06,0,0,1-.32-.54c-.36-.87-.35-.86-1.16-.36a.56.56,0,0,1-.49,0c-.2-.14,0-.28.09-.39.61-1.07,0-1.15-.84-1.07a8.71,8.71,0,0,1-1.14,0,3.9,3.9,0,0,0-3.61,3.28,1.35,1.35,0,0,1-1.3,1.3,1.68,1.68,0,0,0-1.74,1.94c0,.29-.08.37-.31.44-.71.2-.86.88-1.13,1.43-.11.21-.37.72.31.66.41,0,.68.11.7.55a1,1,0,0,1-.55,1c-.54.24-1,.66-1.55.87s-.9.49-.88,1,.51.54.91.72,1.52.47.3,1.18c-.33.19-.21.46.07.58.45.19.56.59.8,1a1.25,1.25,0,0,0,1.59.48c2.67-1.58,4.7.48,6.07,2.31a14.67,14.67,0,0,1,2.14,4.39c.13.42.51.75,1,.41,1.2-.81,1.68.48,2.53.73-.68.19-1.53-.37-1.88.57a2.32,2.32,0,0,0,1.08,2.33C200.38,130.47,200.63,129.62,201,128.92Zm-18.65-17.75a10.81,10.81,0,0,0-1.13.18c-1.73.48-2.33.18-2.81-1.5-.13-.45-.52-.49-.62-.27-.37.83-1.7,1.21-1.18,2.48a1.19,1.19,0,0,1-.25,1.08,1.16,1.16,0,0,0,.17,1.72,1.26,1.26,0,0,0,1.89-.41,2.23,2.23,0,0,1,1.26-1c0,.18.11.42,0,.51-.46.52-1.54.61-1.14,1.71-1.17-.17-.41,1.27-1.23,1.45a.81.81,0,0,0-.73.91c.07.49.57.41.9.57,1.12.52,2.37-.08,3.54.51.37.19,1.63-.55,1.28-1.12a1.05,1.05,0,0,1,.27-1.47c1.25-.58,1.2-1.75,1.5-2.78a1.13,1.13,0,0,1,.39-.48c1.69-1.21,2.32-3.14,3.3-4.84.2-.36,0-.56-.29-.7a6.06,6.06,0,0,0-5.91,0,6.09,6.09,0,0,1-2,1,1.13,1.13,0,0,0-.77,1.34A1,1,0,0,0,180,111,4.88,4.88,0,0,1,182.32,111.17Zm-18.49,10.31a4.51,4.51,0,0,0-.62-.79c-.62-.49-1.94-.22-1.7-1.62,0-.06-.28-.25-.41-.23-1.32.17-2.72,0-3.89.86a2,2,0,0,0,0,3.13c.42.29,1.07.38,1,1.14a2,2,0,0,1-1.45-.3c-.38-.17-.78-.79-1.28,0a1.16,1.16,0,0,0,.18,1.7c.24.22.72.36.51.76-.61,1.19.33,1.18,1,1.45a7.2,7.2,0,0,0,3,.38c.89-.06,1.31,0,1.67.87a1.43,1.43,0,0,0,2.42.16,1.05,1.05,0,0,1,.61-.45c.71-.27,1.08-.69.18-1.31-.64-.44-1.43-1.29-1.07-1.86.76-1.18.44-3,2.1-3.61a.62.62,0,0,0,.34-.95.81.81,0,0,0-1.2-.3Zm82.46,3c-.36-.15-.4-.53-.55-.83s-.06-.77-.52-.79-.26.53-.45.78a12.47,12.47,0,0,0,.95,3.28,1.52,1.52,0,0,0,.38.05,3,3,0,0,1,2.4,1.39c.24.45.87.17.88.1.1-1.17.49-.25.65-.07.28.34.53.78,1,.69.66-.12,0-.82.47-1.18.25.39.64.4,1.09.4.75,0,1.47,1.14,1.07,1.75-.54.82.5.81.54,1.29,1.29-.39,1,.73,1.2,1.31.1.27.07.6.5.69.4-.36.38-1.26,1.28-1.17-.29,1.42.65,2.45,1,3.68,0-.77.62-1.52.37-2.11s-.26-1,.23-1.43a.66.66,0,0,0,.17-.7c-.34-1.5-.59-3-1-4.5a1.35,1.35,0,0,0-1.81-1.05,7.26,7.26,0,0,1-4.78-.49c-.75-.38-1.36-.45-1.91.15-.32-.5-.59-1-.92-1.42C247.23,122.61,247.16,122.62,246.29,124.52ZM164.52,231a26.53,26.53,0,0,0,3.33-1.11c.81-.38,1.75-.32,2,.23a1.49,1.49,0,0,0,1.52,1,5.69,5.69,0,0,1,2.06.58,4.58,4.58,0,0,0,2.42.69c.36,0,.68,0,.77.46.2,1,1,1.31,1.88,1.36.33,0,.73-.1.9.31s-.32.52-.53.74-.37.2-.27.61c2.26-.47,4.64.59,6.83-.54-.71-1.24-2.22-.86-3.18-1.81-.55-.54-1.76-.64-2.63-1.11a13.07,13.07,0,0,0-3.43-1.7,4.7,4.7,0,0,1-1.67-.73,7.47,7.47,0,0,0-4.71-1.31C167.88,228.84,165.62,228.53,164.52,231ZM227,128.41c.43-.34.78-.84,1.17-.86,1.75-.11,1.86-1.41,2.06-2.66.06-.37,0-.77,0-1.15a2.22,2.22,0,0,0-.93-2.34c-.71-.5-1.73,0-2.36-.73a1.2,1.2,0,0,1-.27.28c-.91.51-.59,1.72-1.36,2.35s.17,1.23-.1,2c-.7-.54-1.47-1.38-2.23-.59-.45.48.05,1.45.48,1.86.65.6.59-.76,1.23-.68.4.51,0,1.13.19,1.68C226.05,126.84,226.37,127,227,128.41ZM184.88,238.74a3.1,3.1,0,0,0,1.83.43c1.28,0,2.76-.68,3.89.39.68.64.93.27,1.17-.25s.39-1,.82-.74c.74.45,1.29,0,1.9-.15s1.32-.43,1.95.08c.45.37.56-.09.78-.31s.09-.46-.12-.71c-.46-.54-1.19-.27-1.62-.58a4.78,4.78,0,0,0-2.64-1.24c-1.57-.34-3.16.45-4.72-.15a.92.92,0,0,0-1.14.59c.63.1,2.2,1.68,2,2-.58.81-1.41.48-2.18.25a2.53,2.53,0,0,0-.38-.07C185.83,238.27,185.24,238.05,184.88,238.74Zm68.24-101.21c.78.14.87-.35,1-.73.8-2.53.38-3.69-1.88-5.24a1.54,1.54,0,0,1-.7-1,1.5,1.5,0,0,0-1.51-1c-.65,0-1.05.57-1.22,1.14a1.1,1.1,0,0,0,.65,1.46c.63.18.44.48.3.84-.37,1,.05,1.92,1.09,1.95,1.31,0,1.42,1.07,1.54,1.83S252.91,137.43,253.12,137.53Zm-92.07-19.91c.59-1.16-.89-1.46-1-2.37-.75.11-1.6-.9-2.21-.09a5.55,5.55,0,0,1-2.7,1.82c-1.16.43-.35,1.77-1.12,2.37.42.5,1.08.38,1.62.56a1.5,1.5,0,0,0,1.16-.4,5,5,0,0,1,3.48-1C160.84,118.51,161.49,118.58,161.05,117.62Zm47.39-21.43c.63-.18,1-.54,1.52-.31.34.15.68.3.84-.17s-.32-.51-.56-.71a.77.77,0,0,0-1,0c-.94.5-2,1.33-2.82-.33a1.4,1.4,0,0,0-1.82-.51c-.49.31-.17,1,0,1.61.2.78,1.2,1,1.06,1.81s.44,1,1.07,1.07c1.53.14,3-.61,4.53-.47a1.42,1.42,0,0,0,1.3-.61Zm-8.13-13.93c1.84.21,3.44,1.12,5.2,1.41a9.63,9.63,0,0,0,2.62.43A37.85,37.85,0,0,1,214,84c.81,0,1.33-.08,1.48-.93a2.45,2.45,0,0,0-1.39-1.83c-.23,0-.31,0-.31.24,0,1.12-1,1.18-1.65,1.18-3,0-6,.17-8.94-.66C202.27,81.76,201.27,81.21,200.31,82.26Zm-20.48,39.89a1.23,1.23,0,0,0,1.38-1c.19-.74-.33-1.05-.87-1.16a4.35,4.35,0,0,0-2.48-.24c-.61.21-1.5-.14-1.51-.63,0-1.28-1.07-1.62-1.74-2.29-.22-.21-.49-.55-.88-.32s-.26.43-.23.69.05.71.51.77c1.42.16,1,1,.59,1.74-.57,1-.18,1.48.78,1.93C176.82,122.32,178.35,122,179.83,122.15Zm-13,1.46a3.26,3.26,0,0,1,.8,2.18s.18.15.29.17a2.36,2.36,0,0,0,2.45-1.51c.2-.86-.41-1.86.41-2.65a.42.42,0,0,0,0-.35,13.91,13.91,0,0,0-1.79-.38c-.53-.06-.76.36-.84.79s.06.69-.53.51C166.75,122.1,166.74,122.71,166.83,123.61Zm3.46-6.62c-.21-.5,0-1.07-.61-1.17-.21,0-.24.13-.3.3a2.91,2.91,0,0,0,1,3.16c1.18.63,1.33-.4,1.68-1.07s.56-1.16-.1-1.69S170.83,116.32,170.29,117Zm-4-4.73c-.07-.23-.25-.23-.46-.3a5.68,5.68,0,0,0-3.34-.08c-.47.11-1.23-.1-1,.69a1,1,0,0,0,1.41.84c.34-.12.74-.52,1.21.07C164.35,113.85,166.31,112.72,166.26,112.26Zm7.15,1.79c-.11-.4.15-.7.27-1,.35-1-.71-1.13-1.1-1.66-.16-.22-.81-.13-.78,0,.14.65-.52,1.38-.16,1.76.69.72,1.32,1.7,2.61,1.62.48,0,.72-.13.83-.56a.94.94,0,0,0-.38-1c-.49-.32-.46.3-.68.49S173.78,114.15,173.41,114.05Zm-9.3-32c.66-.1,1.12-.16,1.57-.24s.4-.84,1-.68c.36.1.83,0,.85-.49s-.33-.65-.7-.8c-.76-.32-3,.69-3.14,1.46C163.64,81.75,163.84,82,164.11,82ZM275.8,132.12c1.1.66.3,2,1.46,2.34.88.24,1.12,1.46,2.21,1.5C278.77,133.47,277.8,132.37,275.8,132.12ZM181.21,239.68a3.08,3.08,0,0,0-4.12-.92C178.24,240,179.75,239.65,181.21,239.68ZM196.76,88.12c.63.52,1.19-.22,1.86.08s-.07-1.47,1.17-.91c-2.1-1-3.28-1.1-3.94-.32.72.22,1.6-.28,2.23.45C197.65,87.72,197.09,87.59,196.76,88.12Zm-15,37.25c.53.06,1.23.4,1.18-.55s-.76-1.24-1.6-1.23c-.58,0-1.23,0-1.19.88C180.25,125.65,181,125.51,181.79,125.37Zm-59.46,14.1a6.92,6.92,0,0,0-1.47,4.85,4.3,4.3,0,0,1,1.47-2.9C123.32,140.56,123.11,140.12,122.33,139.47Zm-3.85-21.33c-.75-.19-1,.48-1.08.92s.5.32.77.49c1,.6,1.61-.36,2.36-.65C120.73,118.83,119.8,118.28,118.48,118.14Zm64.6,16.29c-.82,0-1,.67-1.07,1.31,0,.39,0,.88.68.84a1.22,1.22,0,0,0,1.29-1.29A.78.78,0,0,0,183.08,134.43Zm18.7,102.91c-.46.06-.93.15-1.4.17s-.64,0-.63.55.33.68.74.64a11.29,11.29,0,0,0,1.5-.28c.38-.08.87-.19.75-.66S202.2,237.28,201.78,237.34Zm.81-64.45a4.35,4.35,0,0,0-4.05-1C199.72,172.72,200.85,173.5,202.59,172.89Zm-33.65-60.36a6,6,0,0,1-1,0c-.23,0-.45-.52-.68,0-.07.15-.18.35-.12.46.13.3.41.34.73.39.75.1.92-.66,1.4-.87s.82-.23.36-.69-.89-.79-1.31-.36.52.31.49.71A1.62,1.62,0,0,0,168.94,112.53Zm9.6,115.6a4.37,4.37,0,0,0-.6-3c-.14-.1-.45-.1-.42,0,.18.55-.84,1.11,0,1.64C178,227,178.19,227.58,178.54,228.13Zm24.25-49.53c-1.54.33-2.15.32-2.66-.08-.12-.1,0-.55-.34-.3s-.23.42,0,.64a4,4,0,0,0,2.21.89C202.67,179.8,202.26,178.83,202.79,178.6ZM172.9,119c-.24.25-.8.59-.79.91s.58.8,1,.85.51-.59.56-.93S173.58,119.05,172.9,119Zm110.85,3.48c-.1-1.39,0-2.54-.95-3.41C283.32,120.05,282.67,121.32,283.75,122.47ZM200,88.7c.41.46.42,1.45,1.34,1.22.29-.08.44-.66.31-.94C201.32,88.21,200.61,88.77,200,88.7ZM146,93.24c-.1-.24-.28-.67-.69-.62-.67.08-.42.79-.63,1.2-.08.17-.09.71.38.6A1.14,1.14,0,0,0,146,93.24ZM69.08,168.71a3.81,3.81,0,0,0,.18-2.5C68.88,167,67.71,167.69,69.08,168.71Zm142.59,83.14c1.63-.24,1.71-.34,1.38-1.5C211.48,249.9,212.46,251.59,211.67,251.85Zm-34-92.06c.56-.3,1.24.46,1.46-.55.08-.38,0-.85-.3-.85C178.07,158.37,178.05,159.14,177.65,159.79Zm-14.3-77.52a3.33,3.33,0,0,0-2.17.16c-.22.08-.55.17-.47.47s.45.37.73.25C162,82.91,162.58,82.63,163.35,82.27ZM179,147.92a2.14,2.14,0,0,0,.57-1.33c0-.38-.35-.34-.55-.3-.66.11-.4.72-.51,1.11A.48.48,0,0,0,179,147.92Zm-30.17,119a1.84,1.84,0,0,0,.41,1.86c.23.2.72,0,.72-.22C150,267.84,149.41,267.46,148.84,266.88ZM174,115.12a2.4,2.4,0,0,0,1,.92.6.6,0,0,0,1-.27c.2-.5-.35-.49-.6-.56A7.59,7.59,0,0,0,174,115.12Zm-45.65-12.64c.27-.52.68-.86,1-1.3a.59.59,0,0,0,.08-.7c-.16-.19-.55,0-.56,0,0,.62-.49,1-.67,1.57C128.09,102.18,128.25,102.35,128.32,102.48Zm46.82,43.77c.89.27,1.34-.34,2-.89C176.09,145.07,175.43,145.27,175.14,146.25Zm45.94-62c-.54-.4-.93-.75-1.53-.48a.27.27,0,0,0-.09.43C219.91,84.59,220.41,84.58,221.08,84.2Zm-98.71,21.42c-.44.44-.82.81-.58,1.38a.37.37,0,0,0,.55.11C123,106.67,122.61,106.17,122.37,105.62Zm39.08-25.73a2.15,2.15,0,0,0,2.25-.21C162.92,78.91,162.31,79.41,161.45,79.89Zm115.12,62.69c.38-.51,1.06-.54.68-1.21-.08-.16-.15-.5-.4-.38C276.17,141.31,276.68,141.87,276.57,142.58Zm2.39,37.3c.49-1.11-.37-1.84-.23-2.71A4.7,4.7,0,0,0,279,179.88ZM168.79,231.59c-.15-.3-.27-.67-.62-.72s-.38.23-.41.57.18.52.49.46S168.81,232,168.79,231.59ZM110,110.71c.29.52.41,1,.92.76a.44.44,0,0,0,.28-.62C111,110.43,110.55,110.91,110,110.71Z" style="fill: rgb(0, 80, 143);" transform="matrix(1, 0, 0, 1, -771.64679, 25.373386)"/>
  <path class="a" d="M265,98.92l2.6,3.21c-.21.06-.3.11-.37.09-.63-.21-1.31-.34-1.69.35s.44,1,.78,1.41a21.08,21.08,0,0,0,2.5,2.32c1.3,1.2,2.54,2.48,3.82,3.7a1,1,0,0,0,1.17.14c.35-.21.13-.62,0-.94a11.22,11.22,0,0,0-2.11-3.63A7.3,7.3,0,0,1,270.1,102c-.34-2.69-2.12-4.43-4-6.13-.33-.31-.76-.46-.92.47s-.08,1.72-.2,2.56c-.67.19-.55-.48-.74-.75A2.77,2.77,0,0,0,262,96.73a13.28,13.28,0,0,0,3,3.25C265.56,99.55,264.56,99.3,265,98.92Zm-21.69-3.65c-.78-.23-.78-.87-1.31-1s-.87-.44-1.26,0c-.21.22-.53.54-.21.89s.68.75,1.3.51A11.73,11.73,0,0,1,243.32,95.27Zm-5.43-3.51c.79,1,1.3.36,2-.06C239.11,91.12,238.56,91.52,237.89,91.76Zm37.95,20.95c-.33-1.06-.4-2-1.36-2.61A4.77,4.77,0,0,0,275.84,112.71Z" style="fill: rgb(29, 145, 92);" transform="matrix(1, 0, 0, 1, -771.64679, 25.373386)"/>
  <path class="a" d="M60.39,180.07c.4,1.33-.1,2.65,0,4,0,1,.53,2,0,3Z" style="fill: rgb(29, 145, 92);" transform="matrix(1, 0, 0, 1, -771.64679, 25.373386)"/>
  <path class="a" d="M192.06,306.63a1.48,1.48,0,0,1,0,.21h-1.8C190.8,306.35,191.45,306.66,192.06,306.63Z" style="fill: rgb(29, 145, 92);" transform="matrix(1, 0, 0, 1, -771.64679, 25.373386)"/>
  <path class="a" d="M201,128.92c-.34.7-.59,1.55-1.65,1.24a2.32,2.32,0,0,1-1.08-2.33c.35-.94,1.2-.38,1.88-.57-.85-.25-1.33-1.54-2.53-.73-.49.34-.87,0-1-.41a14.67,14.67,0,0,0-2.14-4.39c-1.37-1.83-3.4-3.89-6.07-2.31a1.25,1.25,0,0,1-1.59-.48c-.24-.37-.35-.77-.8-1-.28-.12-.4-.39-.07-.58,1.22-.71,0-1-.3-1.18s-.9-.28-.91-.72.38-.77.88-1,1-.63,1.55-.87a1,1,0,0,0,.55-1c0-.44-.29-.58-.7-.55-.68.06-.42-.45-.31-.66.27-.55.42-1.23,1.13-1.43.23-.07.35-.15.31-.44a1.68,1.68,0,0,1,1.74-1.94,1.35,1.35,0,0,0,1.3-1.3,3.9,3.9,0,0,1,3.61-3.28,8.71,8.71,0,0,0,1.14,0c.86-.08,1.45,0,.84,1.07-.06.11-.29.25-.09.39a.56.56,0,0,0,.49,0c.81-.5.8-.51,1.16.36a3.06,3.06,0,0,0,.32.54c.61-.25.18-.64.21-1,0-.6-.19-1.39.65-1.66s1.27.16,1.59.88a9,9,0,0,0,1.62,2.3,7.36,7.36,0,0,0,3.83,2.58,3.49,3.49,0,0,1,.86.48c0,.51-.91.39-.61,1s.66.37,1.16.35a3.14,3.14,0,0,1,1.61.7c.5.32.71,1.16,1.55.87,0,0,.1,0,.09.08-.14,1,1.39,1.33,1,2.45-.1.32,0,.64.49.69a2.09,2.09,0,0,1,1.42,1c-.05.47-.66,0-.73.51a3.91,3.91,0,0,1,3,1.2c.21.25.61.43.27.83a.87.87,0,0,1-1.11.34c-.41-.17-.69-.67-1.3-.49.08.67,1.34.78.73,1.82.48-.9,1.33-.77,2-1s.52.34.56.61a6.18,6.18,0,0,1-1.3,5.19,2.37,2.37,0,0,0-.49,2.64,4.64,4.64,0,0,1-.08,3.38c-.21.52-.44,1.07-1,1.21-1.17.27-.62,1.6-1.37,2.1a4.33,4.33,0,0,0,.38.47,3.56,3.56,0,0,1,1.09,3.94c-.09.23-.36.5-.09.69,1.32.94.84,2.6,1.54,3.8.3.52.49,1.33-.12,1.77a1.69,1.69,0,0,1-1.83-.08,2.23,2.23,0,0,0-1.84-.33,2.9,2.9,0,0,1-3-.92c-1.56-1.46-3.44-2.74-4.48-4.51s-2.8-2.46-3.43-4.31a7.36,7.36,0,0,1-.64-2.72,1.1,1.1,0,0,1,.24-.83C202.15,130.3,202.14,130.12,201,128.92Z" style="fill: rgb(29, 145, 92);" transform="matrix(1, 0, 0, 1, -771.64679, 25.373386)"/>
  <path class="a" d="M183,133.42c.47-1.33-.95-1.64-1.37-2.5-.16-.33-.4.07-.55.24-.32.36-.73.83-1.17.4-1-.91-2.22-.7-3.32-1a4.51,4.51,0,0,1-2.85-3.87c-.06-1,1.62-3.21,2.73-3.48a2.31,2.31,0,0,1,1.75.26c-1.52.88-2,1.76-1.61,3.35a3.43,3.43,0,0,1,2.06-3.07c.35-.14.74-.43,1.09-.21s.28.68.13,1.06.13,1,.15,1.48.92.07,1,0c1-1,2,.21,3-.07a.33.33,0,0,1,.27.2c.36,2,2.62,1.93,3.68,3.22.51.62,1.48.83,1.26,2-.09.47.6.53.78.93-.27.35-1.1.38-.77,1.09a1.71,1.71,0,0,0,1.65,1c1.77.05,2.93,1.37,4.27,2.25.27.18,0,1.4-.23,2s-.83.76-1.07,1.44c-.13.37-1.07-.15-1.33-.67a3,3,0,0,0-1.9-1.42,1.75,1.75,0,0,0,1,2.29c1.3.6,1.5,2,2.4,2.88a1.1,1.1,0,0,1,0,1.32,1.28,1.28,0,0,1-1.44.13,12.19,12.19,0,0,0-2.73-1.25,10.85,10.85,0,0,0,2.38,2.19c.34.28.74.61.54,1.06s-.7.25-1,.16a10.84,10.84,0,0,1-4.59-2.31,8.66,8.66,0,0,0-2.65-2.06,2.18,2.18,0,0,0-1.82-.08c-.68.27-1.51.53-2-.41s.76-1.23,1-1.94c.06-.22.45.09.69.12.67.08,1.36.35,2-.05.31-.19.77-.42.26-.85s-.21-.79.16-1.2a2.86,2.86,0,0,0-.89-4.76c-.34-.18-.5.32-.81.18Z" style="fill: rgb(29, 145, 92);" transform="matrix(1, 0, 0, 1, -771.64679, 25.373386)"/>
  <path class="a" d="M182.32,111.17A4.88,4.88,0,0,0,180,111a1,1,0,0,1-1.18-.94,1.13,1.13,0,0,1,.77-1.34,6.09,6.09,0,0,0,2-1,6.06,6.06,0,0,1,5.91,0c.3.14.49.34.29.7-1,1.7-1.61,3.63-3.3,4.84a1.13,1.13,0,0,0-.39.48c-.3,1-.25,2.2-1.5,2.78a1.05,1.05,0,0,0-.27,1.47c.35.57-.91,1.31-1.28,1.12-1.17-.59-2.42,0-3.54-.51-.33-.16-.83-.08-.9-.57a.81.81,0,0,1,.73-.91c.82-.18.06-1.62,1.23-1.45-.4-1.1.68-1.19,1.14-1.71.07-.09,0-.33,0-.51a2.23,2.23,0,0,0-1.26,1,1.26,1.26,0,0,1-1.89.41,1.16,1.16,0,0,1-.17-1.72,1.19,1.19,0,0,0,.25-1.08c-.52-1.27.81-1.65,1.18-2.48.1-.22.49-.18.62.27.48,1.68,1.08,2,2.81,1.5A10.81,10.81,0,0,1,182.32,111.17Z" style="fill: rgb(29, 145, 92);" transform="matrix(1, 0, 0, 1, -771.64679, 25.373386)"/>
  <path class="a" d="M163.83,121.48l1.48-1a.81.81,0,0,1,1.2.3.62.62,0,0,1-.34.95c-1.66.63-1.34,2.43-2.1,3.61-.36.57.43,1.42,1.07,1.86.9.62.53,1-.18,1.31a1.05,1.05,0,0,0-.61.45,1.43,1.43,0,0,1-2.42-.16c-.36-.92-.78-.93-1.67-.87a7.2,7.2,0,0,1-3-.38c-.69-.27-1.63-.26-1-1.45.21-.4-.27-.54-.51-.76a1.16,1.16,0,0,1-.18-1.7c.5-.74.9-.12,1.28,0a2,2,0,0,0,1.45.3c.05-.76-.6-.85-1-1.14a2,2,0,0,1,0-3.13c1.17-.85,2.57-.69,3.89-.86.13,0,.42.17.41.23-.24,1.4,1.08,1.13,1.7,1.62A4.51,4.51,0,0,1,163.83,121.48Z" style="fill: rgb(29, 145, 92);" transform="matrix(1, 0, 0, 1, -771.64679, 25.373386)"/>
  <path class="a" d="M246.29,124.52c.87-1.9.94-1.91,2.23-.18.33.44.6.92.92,1.42.55-.6,1.16-.53,1.91-.15a7.26,7.26,0,0,0,4.78.49,1.35,1.35,0,0,1,1.81,1.05c.44,1.47.69,3,1,4.5a.66.66,0,0,1-.17.7c-.49.41-.5.77-.23,1.43s-.36,1.34-.37,2.11c-.38-1.23-1.32-2.26-1-3.68-.9-.09-.88.81-1.28,1.17-.43-.09-.4-.42-.5-.69-.23-.58.09-1.7-1.2-1.31,0-.48-1.08-.47-.54-1.29.4-.61-.32-1.74-1.07-1.75-.45,0-.84,0-1.09-.4-.42.36.19,1.06-.47,1.18-.46.09-.71-.35-1-.69-.16-.18-.55-1.1-.65.07,0,.07-.64.35-.88-.1a3,3,0,0,0-2.4-1.39,1.52,1.52,0,0,1-.38-.05,12.47,12.47,0,0,1-.95-3.28c.19-.25-.09-.8.45-.78s.39.49.52.79S245.93,124.37,246.29,124.52Z" style="fill: rgb(29, 145, 92);" transform="matrix(1, 0, 0, 1, -771.64679, 25.373386)"/>
  <path class="a" d="M208.56,165.87c1.09.26,1.1.26.8,1.59-.16.74-.35,1.47-.54,2.27,1-.61.92-.58,1.36.27a.75.75,0,0,0,1.06.38,3.93,3.93,0,0,1,1.2-.39c.53-.06,1.06-.18.78.82-.34,1.25.74.51,1.19.6-.15.68-.9,1.18-.55,2,.61-.15.08-1,.73-.95.28.67,1.23,1.11.92,2.14-.1.33.11.75-.47.87s-.68-.69-1.22-.46c.05-.34.18-.71-.41-.68s-.64.28-.8.69c-.33.78-.36.76-1.13.79,0-.41.66-.7.29-1.12s-.84-.17-1.22-.05c-1.18.37-2.47.21-3.59.81-.19.11-.36.23-.52,0s-.34-.53-.18-.84c1-2.06,1-4.35,1.44-6.54.16-.84.9-1.34.86-2.19Z" style="fill: rgb(29, 145, 92);" transform="matrix(1, 0, 0, 1, -771.64679, 25.373386)"/>
  <path class="a" d="M164.52,231c1.1-2.44,3.36-2.13,5.27-2.34a7.47,7.47,0,0,1,4.71,1.31,4.7,4.7,0,0,0,1.67.73,13.07,13.07,0,0,1,3.43,1.7c.87.47,2.08.57,2.63,1.11,1,1,2.47.57,3.18,1.81-2.19,1.13-4.57.07-6.83.54-.1-.41.15-.47.27-.61s.72-.26.53-.74-.57-.3-.9-.31c-.93,0-1.68-.34-1.88-1.36-.09-.47-.41-.5-.77-.46a4.58,4.58,0,0,1-2.42-.69,5.69,5.69,0,0,0-2.06-.58,1.49,1.49,0,0,1-1.52-1c-.23-.55-1.17-.61-2-.23A26.53,26.53,0,0,1,164.52,231Z" style="fill: rgb(29, 145, 92);" transform="matrix(1, 0, 0, 1, -771.64679, 25.373386)"/>
  <path class="a" d="M227,128.41c-.58-1.45-.9-1.57-2.11-.88-.2-.55.21-1.17-.19-1.68-.64-.08-.58,1.28-1.23.68-.43-.41-.93-1.38-.48-1.86.76-.79,1.53,0,2.23.59.27-.73-.55-1.44.1-2s.45-1.84,1.36-2.35a1.2,1.2,0,0,0,.27-.28c.63.73,1.65.23,2.36.73a2.22,2.22,0,0,1,.93,2.34c-.05.38.05.78,0,1.15-.2,1.25-.31,2.55-2.06,2.66C227.73,127.57,227.38,128.07,227,128.41Z" style="fill: rgb(29, 145, 92);" transform="matrix(1, 0, 0, 1, -771.64679, 25.373386)"/>
  <path class="a" d="M184.88,238.74c.36-.69,1-.47,1.49-.44a2.53,2.53,0,0,1,.38.07c.77.23,1.6.56,2.18-.25.25-.34-1.32-1.92-2-2a.92.92,0,0,1,1.14-.59c1.56.6,3.15-.19,4.72.15a4.78,4.78,0,0,1,2.64,1.24c.43.31,1.16,0,1.62.58.21.25.43.4.12.71s-.33.68-.78.31c-.63-.51-1.28-.21-1.95-.08s-1.16.6-1.9.15c-.43-.25-.64.32-.82.74s-.49.89-1.17.25c-1.13-1.07-2.61-.41-3.89-.39A3.1,3.1,0,0,1,184.88,238.74Z" style="fill: rgb(29, 145, 92);" transform="matrix(1, 0, 0, 1, -771.64679, 25.373386)"/>
  <path class="a" d="M253.12,137.53c-.21-.1-.62,0-.74-.7s-.23-1.8-1.54-1.83c-1,0-1.46-1-1.09-1.95.14-.36.33-.66-.3-.84a1.1,1.1,0,0,1-.65-1.46c.17-.57.57-1.16,1.22-1.14a1.5,1.5,0,0,1,1.51,1,1.54,1.54,0,0,0,.7,1c2.26,1.55,2.68,2.71,1.88,5.24C254,137.18,253.9,137.67,253.12,137.53Z" style="fill: rgb(29, 145, 92);" transform="matrix(1, 0, 0, 1, -771.64679, 25.373386)"/>
  <path class="a" d="M161.05,117.62c.44,1-.21.89-.78.89a5,5,0,0,0-3.48,1,1.5,1.5,0,0,1-1.16.4c-.54-.18-1.2-.06-1.62-.56.77-.6,0-1.94,1.12-2.37a5.55,5.55,0,0,0,2.7-1.82c.61-.81,1.46.2,2.21.09C160.16,116.16,161.64,116.46,161.05,117.62Z" style="fill: rgb(29, 145, 92);" transform="matrix(1, 0, 0, 1, -771.64679, 25.373386)"/>
  <path class="a" d="M208.44,96.19l4.1,1.33a1.42,1.42,0,0,1-1.3.61c-1.55-.14-3,.61-4.53.47-.63-.06-1.21-.2-1.07-1.07s-.86-1-1.06-1.81c-.16-.62-.48-1.3,0-1.61a1.4,1.4,0,0,1,1.82.51c.84,1.66,1.88.83,2.82.33a.77.77,0,0,1,1,0c.24.2.72.24.56.71s-.5.32-.84.17C209.47,95.65,209.07,96,208.44,96.19Z" style="fill: rgb(29, 145, 92);" transform="matrix(1, 0, 0, 1, -771.64679, 25.373386)"/>
  <path class="a" d="M200.31,82.26c1-1.05,2-.5,2.84-.25,2.95.83,5.95.65,8.94.66.68,0,1.63-.06,1.65-1.18,0-.23.08-.27.31-.24a2.45,2.45,0,0,1,1.39,1.83c-.15.85-.67,1-1.48.93a37.85,37.85,0,0,0-5.83.09,9.63,9.63,0,0,1-2.62-.43C203.75,83.38,202.15,82.47,200.31,82.26Z" style="fill: rgb(29, 145, 92);" transform="matrix(1, 0, 0, 1, -771.64679, 25.373386)"/>
  <path class="a" d="M179.83,122.15c-1.48-.11-3,.17-4.45-.51-1-.45-1.35-.91-.78-1.93.41-.73.83-1.58-.59-1.74-.46-.06-.48-.43-.51-.77s0-.54.23-.69.66.11.88.32c.67.67,1.7,1,1.74,2.29,0,.49.9.84,1.51.63a4.35,4.35,0,0,1,2.48.24c.54.11,1.06.42.87,1.16A1.23,1.23,0,0,1,179.83,122.15Z" style="fill: rgb(29, 145, 92);" transform="matrix(1, 0, 0, 1, -771.64679, 25.373386)"/>
  <path class="a" d="M173.7,138.88c.62.28.82-.6,1.46-.49a2.91,2.91,0,0,0,1.52,2.3c.91.57,1,1.81,1.94,2.32.25.14.12.37-.1.49s-.39.64-.83.38a1.92,1.92,0,0,1-.45-.45c-.77-.9-1.52-1-2.3,0a1.17,1.17,0,0,1-1.06.61c-.2,0-.56,0-.49-.22.31-1.09-.62-.73-1.07-.94a7.58,7.58,0,0,0,1.4-4Z" style="fill: rgb(29, 145, 92);" transform="matrix(1, 0, 0, 1, -771.64679, 25.373386)"/>
  <path class="a" d="M167.85,114.9c0,.42-.2.9.13,1.23.77.78,0,1.16-.35,1.69-.49.69-1,.3-1.43,0-.67-.45-1.33-.12-2-.1-.5,0-1,0-1.18-.55-.27-.74.67-.3.77-.77s-.33-.2-.54-.25c-.47-.13-.62-.61-.73-1s.43-.4.68-.6a3.32,3.32,0,0,1,.56-.3c1.45-.77,2-.43,2,1.22,0,.33-.19.77.27.84s.58-.49.59-.69c0-.77.62-.77,1.09-1A.9.9,0,0,0,167.85,114.9Z" style="fill: rgb(29, 145, 92);" transform="matrix(1, 0, 0, 1, -771.64679, 25.373386)"/>
  <path class="a" d="M166.83,123.61c-.09-.9-.08-1.51.78-1.24.59.18.47-.17.53-.51s.31-.85.84-.79a13.91,13.91,0,0,1,1.79.38.42.42,0,0,1,0,.35c-.82.79-.21,1.79-.41,2.65a2.36,2.36,0,0,1-2.45,1.51c-.11,0-.3-.12-.29-.17A3.26,3.26,0,0,0,166.83,123.61Z" style="fill: rgb(29, 145, 92);" transform="matrix(1, 0, 0, 1, -771.64679, 25.373386)"/>
  <path class="a" d="M121.84,156.43c-.39-.16-.35-.75-.82-.83.51-.2.52-.62.39-1a30,30,0,0,1-.49-3.89c0-.25-.22-.51-.17-.73.08-.44,0-1.11.43-1.23s.42.6.67.89c1.56,1.84.6,4.09,1,6.12C123.05,156.6,122.27,156.31,121.84,156.43Z" style="fill: rgb(29, 145, 92);" transform="matrix(1, 0, 0, 1, -771.64679, 25.373386)"/>
  <path class="a" d="M170.29,117c.54-.67,1-1,1.7-.47s.4,1.12.1,1.69-.5,1.7-1.68,1.07a2.91,2.91,0,0,1-1-3.16c.06-.17.09-.33.3-.3C170.3,115.92,170.08,116.49,170.29,117Z" style="fill: rgb(29, 145, 92);" transform="matrix(1, 0, 0, 1, -771.64679, 25.373386)"/>
  <path class="a" d="M130.22,72.37a2.48,2.48,0,0,1,1.69-.78c.11.06.22.19.32.18q3.33-.33,6.64-.69l0,0c.23.46.9.18,1.12.71a.53.53,0,0,1-.56.31,23.21,23.21,0,0,0-5.32.53c-.3.07-.87.17-.36-.47a1.36,1.36,0,0,0-1.1.1A2.43,2.43,0,0,1,130.22,72.37Z" style="fill: rgb(29, 145, 92);" transform="matrix(1, 0, 0, 1, -771.64679, 25.373386)"/>
  <path class="a" d="M166.26,112.27c.05.45-1.91,1.58-2.21,1.21-.47-.59-.87-.19-1.21-.07a1,1,0,0,1-1.41-.84c-.2-.79.56-.58,1-.69a5.68,5.68,0,0,1,3.34.08C166,112,166.19,112,166.26,112.27Z" style="fill: rgb(29, 145, 92);" transform="matrix(1, 0, 0, 1, -771.64679, 25.373386)"/>
  <path class="a" d="M173.41,114.05c.37.1.44-.22.61-.38s.19-.81.68-.49a.94.94,0,0,1,.38,1c-.11.43-.35.53-.83.56-1.29.08-1.92-.9-2.61-1.62-.36-.38.3-1.11.16-1.76,0-.16.62-.25.78,0,.39.53,1.45.66,1.1,1.66C173.56,113.35,173.3,113.65,173.41,114.05Z" style="fill: rgb(29, 145, 92);" transform="matrix(1, 0, 0, 1, -771.64679, 25.373386)"/>
  <path class="a" d="M185.85,80.62c1.28-.23,2.12.55,2.94,1.33a.45.45,0,0,1,0,.76c-.37.28-.7.61-1.09.85s-1,.34-1-.08c0-.94-1-1.26-1-2.09h0c.47-.14.23-.53.28-.82Z" style="fill: rgb(29, 145, 92);" transform="matrix(1, 0, 0, 1, -771.64679, 25.373386)"/>
  <path class="a" d="M164.11,82c-.27,0-.47-.29-.37-.75.18-.77,2.38-1.78,3.14-1.46.37.15.72.37.7.8s-.49.59-.85.49c-.65-.16-.61.6-1,.68S164.77,81.94,164.11,82Z" style="fill: rgb(29, 145, 92);" transform="matrix(1, 0, 0, 1, -771.64679, 25.373386)"/>
  <path class="a" d="M275.8,132.12c2,.25,3,1.35,3.67,3.84-1.09,0-1.33-1.26-2.21-1.5C276.1,134.14,276.9,132.78,275.8,132.12Z" style="fill: rgb(29, 145, 92);" transform="matrix(1, 0, 0, 1, -771.64679, 25.373386)"/>
  <path class="a" d="M181.21,239.68c-1.46,0-3,.36-4.12-.92A3.08,3.08,0,0,1,181.21,239.68Z" style="fill: rgb(29, 145, 92);" transform="matrix(1, 0, 0, 1, -771.64679, 25.373386)"/>
  <path class="a" d="M196.76,88.12c.33-.53.89-.4,1.32-.7-.63-.73-1.51-.23-2.23-.45.66-.78,1.84-.69,3.94.32-1.24-.56-.39,1.26-1.17.91S197.39,88.64,196.76,88.12Zm1.64-1.05c-.14.05-.34,0-.35.25s.22.21.35.2.36.1.35-.18S198.6,87.06,198.4,87.07Z" style="fill: rgb(29, 145, 92);" transform="matrix(1, 0, 0, 1, -771.64679, 25.373386)"/>
  <path class="a" d="M181.79,125.37c-.76.14-1.54.28-1.61-.9,0-.89.61-.88,1.19-.88.84,0,1.55.3,1.6,1.23S182.32,125.43,181.79,125.37Z" style="fill: rgb(29, 145, 92);" transform="matrix(1, 0, 0, 1, -771.64679, 25.373386)"/>
  <path class="a" d="M122.33,139.47c.78.65,1,1.09,0,1.95a4.3,4.3,0,0,0-1.47,2.9A6.92,6.92,0,0,1,122.33,139.47Z" style="fill: rgb(29, 145, 92);" transform="matrix(1, 0, 0, 1, -771.64679, 25.373386)"/>
  <path class="a" d="M118.48,118.14c1.32.14,2.25.69,2,.76-.75.29-1.33,1.25-2.36.65-.27-.17-.92.08-.77-.49S117.73,118,118.48,118.14Z" style="fill: rgb(29, 145, 92);" transform="matrix(1, 0, 0, 1, -771.64679, 25.373386)"/>
  <path class="a" d="M183.08,134.43a.78.78,0,0,1,.9.86,1.22,1.22,0,0,1-1.29,1.29c-.68,0-.72-.45-.68-.84C182.06,135.1,182.26,134.48,183.08,134.43Z" style="fill: rgb(29, 145, 92);" transform="matrix(1, 0, 0, 1, -771.64679, 25.373386)"/>
  <path class="a" d="M201.78,237.34c.42-.06.88.07,1,.42s-.37.58-.75.66a11.29,11.29,0,0,1-1.5.28c-.41,0-.72-.09-.74-.64s.26-.53.63-.55S201.32,237.4,201.78,237.34Z" style="fill: rgb(29, 145, 92);" transform="matrix(1, 0, 0, 1, -771.64679, 25.373386)"/>
  <path class="a" d="M202.59,172.89c-1.74.61-2.87-.17-4.05-1A4.35,4.35,0,0,1,202.59,172.89Z" style="fill: rgb(29, 145, 92);" transform="matrix(1, 0, 0, 1, -771.64679, 25.373386)"/>
  <path class="a" d="M168.94,112.53a1.62,1.62,0,0,1-.09-.37c0-.4-.95-.25-.49-.71s1,0,1.31.36.06.51-.36.69-.65,1-1.4.87c-.32-.05-.6-.09-.73-.39-.06-.11,0-.31.12-.46.23-.52.45,0,.68,0A6,6,0,0,0,168.94,112.53Z" style="fill: rgb(29, 145, 92);" transform="matrix(1, 0, 0, 1, -771.64679, 25.373386)"/>
  <path class="a" d="M185.64,81.39c-.46-.3-1.07.09-1.51-.4a1,1,0,0,1-.34-.77c.05-.45.41-.35.69-.4.58-.09,1.2.19,1.73-.36.14.6-.36.79-.36,1.16l0,0c-.19.24-.74.36-.28.82Z" style="fill: rgb(29, 145, 92);" transform="matrix(1, 0, 0, 1, -771.64679, 25.373386)"/>
  <path class="a" d="M178.54,228.13c-.35-.55-.52-1.11-1-1.42-.85-.53.17-1.09,0-1.64,0-.09.28-.09.42,0A4.37,4.37,0,0,1,178.54,228.13Z" style="fill: rgb(29, 145, 92);" transform="matrix(1, 0, 0, 1, -771.64679, 25.373386)"/>
  <path class="a" d="M202.79,178.6c-.53.23-.12,1.2-.75,1.15a4,4,0,0,1-2.21-.89c-.27-.22-.26-.48,0-.64s.22.2.34.3C200.64,178.92,201.25,178.93,202.79,178.6Z" style="fill: rgb(29, 145, 92);" transform="matrix(1, 0, 0, 1, -771.64679, 25.373386)"/>
  <path class="a" d="M172.9,119c.68.06.85.46.79.83s0,1-.56.93-1-.44-1-.85S172.66,119.24,172.9,119Z" style="fill: rgb(29, 145, 92);" transform="matrix(1, 0, 0, 1, -771.64679, 25.373386)"/>
  <path class="a" d="M283.75,122.47c-1.08-1.15-.43-2.42-.95-3.41C283.72,119.93,283.65,121.08,283.75,122.47Z" style="fill: rgb(29, 145, 92);" transform="matrix(1, 0, 0, 1, -771.64679, 25.373386)"/>
  <path class="a" d="M200,88.7c.59.07,1.3-.49,1.65.28.13.28,0,.86-.31.94C200.44,90.15,200.43,89.16,200,88.7Z" style="fill: rgb(29, 145, 92);" transform="matrix(1, 0, 0, 1, -771.64679, 25.373386)"/>
  <path class="a" d="M146,93.24a1.14,1.14,0,0,1-.94,1.18c-.47.11-.46-.43-.38-.6.21-.41,0-1.12.63-1.2C145.69,92.57,145.87,93,146,93.24Z" style="fill: rgb(29, 145, 92);" transform="matrix(1, 0, 0, 1, -771.64679, 25.373386)"/>
  <path class="a" d="M69.08,168.71c-1.37-1-.2-1.72.18-2.5A3.81,3.81,0,0,1,69.08,168.71Z" style="fill: rgb(29, 145, 92);" transform="matrix(1, 0, 0, 1, -771.64679, 25.373386)"/>
  <path class="a" d="M211.67,251.85c.79-.26-.19-1.95,1.38-1.5C213.38,251.51,213.3,251.61,211.67,251.85Z" style="fill: rgb(29, 145, 92);" transform="matrix(1, 0, 0, 1, -771.64679, 25.373386)"/>
  <path class="a" d="M177.65,159.79c.4-.65.42-1.42,1.16-1.4.34,0,.38.47.3.85C178.89,160.25,178.21,159.49,177.65,159.79Z" style="fill: rgb(29, 145, 92);" transform="matrix(1, 0, 0, 1, -771.64679, 25.373386)"/>
  <path class="a" d="M163.35,82.27c-.77.36-1.33.64-1.91.88-.28.12-.64.12-.73-.25s.25-.39.47-.47A3.33,3.33,0,0,1,163.35,82.27Z" style="fill: rgb(29, 145, 92);" transform="matrix(1, 0, 0, 1, -771.64679, 25.373386)"/>
  <path class="a" d="M179,147.92a.48.48,0,0,1-.49-.52c.11-.39-.15-1,.51-1.11.2,0,.6-.08.55.3A2.14,2.14,0,0,1,179,147.92Z" style="fill: rgb(29, 145, 92);" transform="matrix(1, 0, 0, 1, -771.64679, 25.373386)"/>
  <path class="a" d="M148.84,266.88c.57.58,1.15,1,1.13,1.64,0,.22-.49.42-.72.22A1.84,1.84,0,0,1,148.84,266.88Z" style="fill: rgb(29, 145, 92);" transform="matrix(1, 0, 0, 1, -771.64679, 25.373386)"/>
  <path class="a" d="M174,115.12a7.59,7.59,0,0,1,1.36.09c.25.07.8.06.6.56a.6.6,0,0,1-1,.27A2.4,2.4,0,0,1,174,115.12Z" style="fill: rgb(29, 145, 92);" transform="matrix(1, 0, 0, 1, -771.64679, 25.373386)"/>
  <path class="a" d="M128.32,102.48c-.07-.13-.23-.3-.2-.4.18-.54.64-1,.67-1.57,0-.05.4-.22.56,0a.59.59,0,0,1-.08.7C129,101.62,128.59,102,128.32,102.48Z" style="fill: rgb(29, 145, 92);" transform="matrix(1, 0, 0, 1, -771.64679, 25.373386)"/>
  <path class="a" d="M175.14,146.25c.29-1,1-1.18,2-.89C176.48,145.91,176,146.52,175.14,146.25Z" style="fill: rgb(29, 145, 92);" transform="matrix(1, 0, 0, 1, -771.64679, 25.373386)"/>
  <path class="a" d="M247,101.73l.11,0c-.61.62.36.41.37.7.76-.23.79.43,1.23.88C247.37,103,247,102.68,247,101.73Z" style="fill: rgb(29, 145, 92);" transform="matrix(1, 0, 0, 1, -771.64679, 25.373386)"/>
  <path class="a" d="M175.05,166.18c.07-.26-.49-.66.18-.78.83-.16,1,.36,1.08,1-.53.23-.79-.52-1.26-.2Z" style="fill: rgb(29, 145, 92);" transform="matrix(1, 0, 0, 1, -771.64679, 25.373386)"/>
  <path class="a" d="M221.08,84.2c-.67.38-1.17.39-1.62,0a.27.27,0,0,1,.09-.43C220.15,83.45,220.54,83.8,221.08,84.2Z" style="fill: rgb(29, 145, 92);" transform="matrix(1, 0, 0, 1, -771.64679, 25.373386)"/>
  <path class="a" d="M122.37,105.62c.24.55.59,1,0,1.49a.37.37,0,0,1-.55-.11C121.55,106.43,121.93,106.06,122.37,105.62Z" style="fill: rgb(29, 145, 92);" transform="matrix(1, 0, 0, 1, -771.64679, 25.373386)"/>
  <path class="a" d="M161.45,79.89c.86-.48,1.47-1,2.25-.21A2.15,2.15,0,0,1,161.45,79.89Z" style="fill: rgb(29, 145, 92);" transform="matrix(1, 0, 0, 1, -771.64679, 25.373386)"/>
  <path class="a" d="M276.57,142.58c.11-.71-.4-1.27.28-1.59.25-.12.32.22.4.38C277.63,142,277,142.07,276.57,142.58Z" style="fill: rgb(29, 145, 92);" transform="matrix(1, 0, 0, 1, -771.64679, 25.373386)"/>
  <path class="a" d="M279,179.88a4.7,4.7,0,0,1-.23-2.71C278.59,178,279.45,178.77,279,179.88Z" style="fill: rgb(29, 145, 92);" transform="matrix(1, 0, 0, 1, -771.64679, 25.373386)"/>
  <path class="a" d="M279.41,109.72a4.3,4.3,0,0,1,1.3,2.21,6.45,6.45,0,0,1-1.47-2Z" style="fill: rgb(29, 145, 92);" transform="matrix(1, 0, 0, 1, -771.64679, 25.373386)"/>
  <path class="a" d="M168.79,231.59c0,.43-.35.28-.54.31s-.51,0-.49-.46,0-.63.41-.57S168.64,231.29,168.79,231.59Z" style="fill: rgb(29, 145, 92);" transform="matrix(1, 0, 0, 1, -771.64679, 25.373386)"/>
  <path class="a" d="M110,110.71c.53.2.93-.28,1.2.14a.44.44,0,0,1-.28.62C110.43,111.66,110.31,111.23,110,110.71Z" style="fill: rgb(29, 145, 92);" transform="matrix(1, 0, 0, 1, -771.64679, 25.373386)"/>
  <path class="a" d="M124.82,75.07a1.34,1.34,0,0,1,1.19-.4C125.73,75.13,125.28,75.11,124.82,75.07Z" style="fill: rgb(29, 145, 92);" transform="matrix(1, 0, 0, 1, -771.64679, 25.373386)"/>
  <path class="a" d="M126.59,74.27a.5.5,0,0,1,.58-.33A.61.61,0,0,1,126.59,74.27Z" style="fill: rgb(29, 145, 92);" transform="matrix(1, 0, 0, 1, -771.64679, 25.373386)"/>
  <path class="a" d="M279.24,109.89c-.14-.13-.17-.48-.48-.22v0c.19.16.28,0,.37-.12s.11-.23-.08-.08l.09.06.26.21Z" style="fill: rgb(29, 145, 92);" transform="matrix(1, 0, 0, 1, -771.64679, 25.373386)"/>
  <path class="a" d="M194.37,306.4a1.46,1.46,0,0,1-1.12.15C193.6,306.3,194,306.41,194.37,306.4Z" style="fill: rgb(29, 145, 92);" transform="matrix(1, 0, 0, 1, -771.64679, 25.373386)"/>
  <path class="a" d="M196.94,306.17a1,1,0,0,1-.78.14A.9.9,0,0,1,196.94,306.17Z" style="fill: rgb(29, 145, 92);" transform="matrix(1, 0, 0, 1, -771.64679, 25.373386)"/>
  <path class="a" d="M253.91,114.62h.3C254.12,114.79,254,114.81,253.91,114.62Z" style="fill: rgb(29, 145, 92);" transform="matrix(1, 0, 0, 1, -771.64679, 25.373386)"/>
  <path class="a" d="M282.31,136.11l0-.32.15.11-.21.21Z" style="fill: rgb(29, 145, 92);" transform="matrix(1, 0, 0, 1, -771.64679, 25.373386)"/>
  <path class="a" d="M207.5,304.63l-.49.14Z" style="fill: rgb(29, 145, 92);" transform="matrix(1, 0, 0, 1, -771.64679, 25.373386)"/>
  <path class="a" d="M206.22,304.87l-.54.15A.52.52,0,0,1,206.22,304.87Z" style="fill: rgb(29, 145, 92);" transform="matrix(1, 0, 0, 1, -771.64679, 25.373386)"/>
  <path class="a" d="M167.71,114.7l.3,0-.16.15A.9.9,0,0,1,167.71,114.7Z" style="fill: rgb(29, 145, 92);" transform="matrix(1, 0, 0, 1, -771.64679, 25.373386)"/>
  <path class="a" d="M113.51,202l.21-.23c.13.27-.14.14-.21.22Z" style="fill: rgb(29, 145, 92);" transform="matrix(1, 0, 0, 1, -771.64679, 25.373386)"/>
  <path class="a" d="M247.71,101.92l.24-.18C247.94,101.89,247.89,102,247.71,101.92Z" style="fill: rgb(29, 145, 92);" transform="matrix(1, 0, 0, 1, -771.64679, 25.373386)"/>
  <path class="a" d="M229.8,102.65c.09.12.22.23,0,.36a1.76,1.76,0,0,1-.2-.2Z" style="fill: rgb(29, 145, 92);" transform="matrix(1, 0, 0, 1, -771.64679, 25.373386)"/>
  <path class="a" d="M124.81,134.72c0,.12-.07.24-.21.15s0-.19.05-.29A1.07,1.07,0,0,1,124.81,134.72Z" style="fill: rgb(29, 145, 92);" transform="matrix(1, 0, 0, 1, -771.64679, 25.373386)"/>
  <path class="a" d="M238.93,262l.15-.07a1.55,1.55,0,0,1,0,.22Z" style="fill: rgb(29, 145, 92);" transform="matrix(1, 0, 0, 1, -771.64679, 25.373386)"/>
  <path class="a" d="M183,133.43l-.13.18a.31.31,0,0,1,0-.12c0-.12.06-.15.17-.07Z" style="fill: rgb(29, 145, 92);" transform="matrix(1, 0, 0, 1, -771.64679, 25.373386)"/>
  <path class="b" d="M188.18,60.18A126.34,126.34,0,0,1,213,63.58c4.19,1,8.25,2.44,12.34,3.82a117.35,117.35,0,0,1,30.49,15.85l2.82,2c-.16.54-.66-.11-.87.24l0,0c-.27-.57-.65-.87-1.29-.51-2.13-2.81-5.34-4.17-8.12-6.1-.12-.07-.24-.2-.36,0a1.6,1.6,0,0,0,.21.18c-.9.37-1.43-.45-2.13-.68A15.66,15.66,0,0,1,244,77.24c-.34-.18-.32-.28-.19-.67.19-.6-.55-.66-.91-.86a120.12,120.12,0,0,0-17.47-7.87,122.44,122.44,0,0,0-28.26-6.5,70.29,70.29,0,0,0-10.26-.57c-.43-.24-1.23.25-1.32-.66l.59,0Z" style="fill: rgb(0, 80, 143);" transform="matrix(1, 0, 0, 1, -771.64679, 25.373386)"/>
  <path class="b" d="M265,98.93c.11-.84,0-1.69.19-2.56s.59-.78.92-.47c1.83,1.7,3.61,3.44,4,6.13a7.3,7.3,0,0,0,1.64,3.54,11.22,11.22,0,0,1,2.11,3.63c.1.32.32.73,0,.94a1,1,0,0,1-1.17-.14c-1.28-1.22-2.52-2.5-3.82-3.7a21.08,21.08,0,0,1-2.5-2.32c-.34-.44-1.19-.64-.78-1.41s1.06-.56,1.69-.35c.07,0,.16,0,.37-.09L265,98.92Z" style="fill: rgb(0, 80, 143);" transform="matrix(1, 0, 0, 1, -771.64679, 25.373386)"/>
  <path class="b" d="M259.32,85.93c3.06,2.52,6.18,5,9.07,7.71a123.2,123.2,0,0,1,17.8,20.94c.82,1.22,1.51,2.52,2.37,4-.69-.23-1-.71-1.51-.87s.07-.66-.19-1.1a90.11,90.11,0,0,0-7.24-10.1A119.35,119.35,0,0,0,265,91.25c-1.15-1-2.64-1.68-3.87-2.66-.07,0-.13-.21-.3-.06-1.75,1.56-3.18.17-4.39-.75A51.29,51.29,0,0,1,251,83.41a1.62,1.62,0,0,1-.6-.85c.84-.46,1.44.16,1.8.66.9,1.22,2.4,1.62,3.37,2.71.37.41.43-.22.68-.24s.24,0,.17-.2a.17.17,0,0,0,.05-.19,3,3,0,0,0,1.33.22l0,0C258.08,86.32,258.76,85.9,259.32,85.93Z" style="fill: rgb(0, 80, 143);" transform="matrix(1, 0, 0, 1, -771.64679, 25.373386)"/>
  <path class="b" d="M154.68,63.6a125.32,125.32,0,0,1,24.75-3.42l2.81,0a1.91,1.91,0,0,0,1.16-.1c.12.14.38.23.21.49-14.39.34-28.44,2.54-42,7.59-1.36.5-2.72,1-4.09,1.44-.47.15-.61.51-.81.87.64.56,1.7-.42,2.14.65q-3.31.36-6.64.69c-.1,0-.21-.12-.32-.18" style="fill: rgb(0, 80, 143);" transform="matrix(1, 0, 0, 1, -771.64679, 25.373386)"/>
  <path class="b" d="M265,98.92c-.45.38.55.63,0,1.06a13.28,13.28,0,0,1-3-3.25,2.77,2.77,0,0,1,2.32,1.45c.19.27.07.94.75.75Z" style="fill: rgb(0, 80, 143);" transform="matrix(1, 0, 0, 1, -771.64679, 25.373386)"/>
  <path class="b" d="M243.32,95.27a11.73,11.73,0,0,0-1.48.32c-.62.24-1-.15-1.3-.51s0-.67.21-.89c.39-.41.83-.12,1.26,0S242.54,95,243.32,95.27Z" style="fill: rgb(0, 80, 143);" transform="matrix(1, 0, 0, 1, -771.64679, 25.373386)"/>
  <path class="a" d="M183.61,60.53c.17-.26-.09-.35-.21-.49a5.56,5.56,0,0,1,2.15.07c.09.91.89.42,1.32.66A9.43,9.43,0,0,1,183.61,60.53Z" style="fill: rgb(29, 145, 92);" transform="matrix(1, 0, 0, 1, -771.64679, 25.373386)"/>
  <path class="b" d="M237.89,91.76c.67-.24,1.22-.64,2-.06C239.19,92.12,238.68,92.8,237.89,91.76Z" style="fill: rgb(0, 80, 143);" transform="matrix(1, 0, 0, 1, -771.64679, 25.373386)"/>
  <path class="b" d="M275.84,112.71a4.77,4.77,0,0,1-1.36-2.61C275.44,110.72,275.51,111.65,275.84,112.71Z" style="fill: rgb(0, 80, 143);" transform="matrix(1, 0, 0, 1, -771.64679, 25.373386)"/>
  <path class="a" d="M257.77,85.52a3,3,0,0,1-1.33-.22l0-.29C257.12,84.65,257.5,85,257.77,85.52Z" style="fill: rgb(29, 145, 92);" transform="matrix(1, 0, 0, 1, -771.64679, 25.373386)"/>
  <path class="a" d="M259.32,85.93c-.56,0-1.24.39-1.58-.43.21-.35.71.3.87-.24C258.9,85.43,259.25,85.53,259.32,85.93Z" style="fill: rgb(29, 145, 92);" transform="matrix(1, 0, 0, 1, -771.64679, 25.373386)"/>
  <path class="b" d="M180.87,75.05a1.48,1.48,0,0,1,1.62-.54c-.55.16-.88,1-1.63.52Z" style="fill: rgb(0, 80, 143);" transform="matrix(1, 0, 0, 1, -771.64679, 25.373386)"/>
  <path class="a" d="M182.24,60.14l-2.81,0A5,5,0,0,1,182.24,60.14Z" style="fill: rgb(29, 145, 92);" transform="matrix(1, 0, 0, 1, -771.64679, 25.373386)"/>
  <path class="a" d="M188.18,60.18l-2,0A2.67,2.67,0,0,1,188.18,60.18Z" style="fill: rgb(29, 145, 92);" transform="matrix(1, 0, 0, 1, -771.64679, 25.373386)"/>
  <path class="b" d="M202.25,76.32c.44.14-.1-.84.53-.47.17.1.47.23.26.46s-.53.45-.79,0Z" style="fill: rgb(0, 80, 143);" transform="matrix(1, 0, 0, 1, -771.64679, 25.373386)"/>
  <path class="b" d="M253.68,113c-.1.37-.31.11-.47.08s-.06-.12-.09-.18a.4.4,0,0,1,.54.15Z" style="fill: rgb(0, 80, 143);" transform="matrix(1, 0, 0, 1, -771.64679, 25.373386)"/>
  <path class="b" d="M174,182.65c.12,1.32-.95,2.26-.85,3.52,0,.38-.53.51-.79.5s-.35-.49-.44-.8c-.38-1.45-.38-1.45-1.68-.71-.23-.31.07-.47.21-.63,1.59-1.77.36-3-1-3.6-.17-.09-.56-.12-.6-.05-.48.86-1.57,1-2.08,1.71a3.62,3.62,0,0,0-.83,2.74,4,4,0,0,1-.29,2.5c-.32.65-.75,1.28-1.57,1-.65-.24-.52-.94-.53-1.53a13.32,13.32,0,0,1,1.23-4.52c0-.08,1.06-.86-.21-.57-.12,0-.16-.19-.06-.28.66-.6.92-1.68,2.14-1.59a10.1,10.1,0,0,1,2.79.16c.32.12.88.38.91-.41,0-.31.29-.18.49-.14.88.2,1.74.44,2.62.56a3.18,3.18,0,0,1,2.64,2.28c.15.38.35.68,0,1s-.66,0-.91-.17A9.46,9.46,0,0,1,174,182.65Z" style="fill: rgb(0, 80, 143);" transform="matrix(1, 0, 0, 1, -771.64679, 25.373386)"/>
  <path class="b" d="M169.53,179.15a1.92,1.92,0,0,0-2.27-.46c-.73.22-1.54.4-1.94-.6,0-.08-.08-.2-.13-.21-2.14-.41-.25-.83,0-1.23-.73-.14-.75-.17-1.21.12a8,8,0,0,1-2.28.81c-.23.06-.58.29-.66,0-.25-1.14-1.09-.37-1.82-.63a9.62,9.62,0,0,1,2.08-1.26c1.48-.4,2.56-1.44,3.87-2.12a3.33,3.33,0,0,1,2.42,1c.28.72.52,1.36,1.43,1.62.49.15.58,1,.53,1.52A9.43,9.43,0,0,1,169.53,179.15Z" style="fill: rgb(0, 80, 143);" transform="matrix(1, 0, 0, 1, -771.64679, 25.373386)"/>
  <path class="b" d="M154.5,167.63a1.38,1.38,0,0,1,.29-1.23,1.45,1.45,0,0,0-.19-2.07c-1-1-.85-2.1-1-3.23,0-.49.13-.91.64-.92s1,.17,1,.87a36,36,0,0,0,.35,5A1.4,1.4,0,0,1,154.5,167.63Z" style="fill: rgb(0, 80, 143);" transform="matrix(1, 0, 0, 1, -771.64679, 25.373386)"/>
  <path class="b" d="M145.89,126.17l4.11,1,0,.3-1.32.17c.11.74.82.88,1.31,1.28-.62.48-1.18,1.26-1.86-.1-.28.68-.49,1.33-1.36,1,.09-.34.58-.45.54-.93a1.14,1.14,0,0,0-1.12.15.54.54,0,0,1-.93-.2c-.2-.43.32-.46.56-.63s.74-.07,1.12,0,.57.16.68-.13a.77.77,0,0,0-.29-.79C146.92,126.83,146.26,126.85,145.89,126.17Z" style="fill: rgb(0, 80, 143);" transform="matrix(1, 0, 0, 1, -771.64679, 25.373386)"/>
  <path class="b" d="M144,138.36c1.55.4,2.6-.22,2.78-1.49.64,0,.67.45.82.91.24.72.7,1,1.48.58a1.79,1.79,0,0,1,1.68-.35c.17.07.5,0,.39.34s-.09.6-.45.47c-1.54-.55-2.72.94-4.26.7C145.56,139.37,144.63,139.59,144,138.36Z" style="fill: rgb(0, 80, 143);" transform="matrix(1, 0, 0, 1, -771.64679, 25.373386)"/>
  <path class="b" d="M170.37,189.39c2.41-.27,4.39-2.08,6.91-1.49C176.25,189.61,171.74,190.67,170.37,189.39Z" style="fill: rgb(0, 80, 143);" transform="matrix(1, 0, 0, 1, -771.64679, 25.373386)"/>
  <path class="b" d="M181.94,184.69c-.27,2.06-.53,2.26-2.43,2.1a4.84,4.84,0,0,0-2,.07c-.32.11-.67.15-.79-.14a.6.6,0,0,1,.47-.76,9.93,9.93,0,0,1,2.12-.46A3.65,3.65,0,0,0,181.94,184.69Z" style="fill: rgb(0, 80, 143);" transform="matrix(1, 0, 0, 1, -771.64679, 25.373386)"/>
  <path class="b" d="M149.78,145.67a1.32,1.32,0,0,1-1.33-.15,1.7,1.7,0,0,0-1.22-.19c-.35.08-.79.72-1,.06-.17-.49.57-.47.83-.51.57-.08,1-1,1.56-.45C149,144.78,149.3,145.23,149.78,145.67Z" style="fill: rgb(0, 80, 143);" transform="matrix(1, 0, 0, 1, -771.64679, 25.373386)"/>
  <path class="b" d="M191.25,253.21c.3.7,1.32,1.22.57,2.18a.6.6,0,0,1-.91,0C190.36,254.67,190.08,253.88,191.25,253.21Z" style="fill: rgb(0, 80, 143);" transform="matrix(1, 0, 0, 1, -771.64679, 25.373386)"/>
  <path class="b" d="M152.32,164.08c.35.06.65.21.48.5-.44.78-.09,1.48.07,2.22,0,.28.08.65-.39.62s-.24-.28-.28-.53c-.12-.8.3-1.62-.18-2.4C151.75,164.07,152.22,164.19,152.32,164.08Z" style="fill: rgb(0, 80, 143);" transform="matrix(1, 0, 0, 1, -771.64679, 25.373386)"/>
  <path class="b" d="M151.75,163.87c-.72-.69-.18-1.13,0-1.56.35-.68.39-.75-.35-.88-.44-.08-.34-.29-.33-.49s.31-.23.5-.19a1.09,1.09,0,0,1,.67,1.73A2.82,2.82,0,0,0,151.75,163.87Z" style="fill: rgb(0, 80, 143);" transform="matrix(1, 0, 0, 1, -771.64679, 25.373386)"/>
  <path class="b" d="M181.77,200.32c-.7-.7,0-1.68-.46-2.42.17-.08.18-.5.44-.32a1.46,1.46,0,0,1,.67,1.22,6.35,6.35,0,0,1-.37,1.32Z" style="fill: rgb(0, 80, 143);" transform="matrix(1, 0, 0, 1, -771.64679, 25.373386)"/>
  <path class="b" d="M154.06,150.25c.45,1.26-1.2,1.09-1.12,2C152.59,151.24,153.3,150.82,154.06,150.25Z" style="fill: rgb(0, 80, 143);" transform="matrix(1, 0, 0, 1, -771.64679, 25.373386)"/>
  <path class="b" d="M191.35,177.3a4.16,4.16,0,0,1-1.44,1.7,4.48,4.48,0,0,1,1.15-1.92Z" style="fill: rgb(0, 80, 143);" transform="matrix(1, 0, 0, 1, -771.64679, 25.373386)"/>
  <path class="b" d="M185.61,81.4c-.46-.46.09-.58.28-.82C185.84,80.87,186.08,81.26,185.61,81.4Z" style="fill: rgb(0, 80, 143);" transform="matrix(1, 0, 0, 1, -771.64679, 25.373386)"/>
  <path class="b" d="M198.4,87.07c.2,0,.33.07.35.27s-.22.18-.35.18-.35.07-.35-.2S198.26,87.12,198.4,87.07Z" style="fill: rgb(0, 80, 143);" transform="matrix(1, 0, 0, 1, -771.64679, 25.373386)"/>
  <path class="c" d="M136.73,223.63a72.73,72.73,0,0,1-24.83,4.42c-12.18,0-22.21-3.11-30.09-10.63-6.92-6.68-11.22-17.43-11.22-30,0-24,16.6-41.54,43.58-41.54,9.31,0,16.71,2,20.17,3.7l-2.62,8.48c-4.3-2-9.67-3.47-17.79-3.47-19.58,0-32.36,12.18-32.36,32.36,0,20.41,12.18,32.47,31.05,32.47,6.8,0,11.46-.95,13.85-2.15v-24H110.23V185h26.5Z" style="fill: rgb(255, 255, 255);" transform="matrix(1, 0, 0, 1, -771.64679, 25.373386)"/>
  <path class="c" d="M158.94,227.21l-20.41-80.47h11l9.55,40.71c2.39,10.15,4.54,20.06,6,27.82h.24c1.32-8,3.82-17.55,6.57-27.93l10.74-40.6h10.87l9.79,40.83c2.27,9.67,4.42,19.11,5.61,27.58h.24c1.67-8.83,3.94-17.79,6.45-27.81l10.62-40.6h10.63L214,227.21H203.12L193,185.43A247.91,247.91,0,0,1,187.72,159h-.24a217.36,217.36,0,0,1-6.21,26.27l-11.46,41.9Z" style="fill: rgb(255, 255, 255);" transform="matrix(1, 0, 0, 1, -771.64679, 25.373386)"/>
  <path class="c" d="M242.5,146.74h48.78v8.72h-37V182.2h34.13v8.6H254.32v36.41H242.5Z" style="fill: rgb(255, 255, 255);" transform="matrix(1, 0, 0, 1, -771.64679, 25.373386)"/>
  <path class="a" d="M46.22,183.53q0-6.93.67-13.67c-2,1.45-3.91,3-5.74,4.62a77.94,77.94,0,0,0-5.73,5.62c-1.79,1.94-3.51,4-5.09,6.09s-3.07,4.27-4.44,6.5-2.62,4.53-3.76,6.87-2.17,4.74-3.08,7.17-1.7,4.92-2.37,7.43-1.23,5.06-1.66,7.61-.74,5.17-.92,7.75c-.13,1.91-.2,3.83-.2,5.75,0,.7,0,1.39,0,2.08.06,2.62.26,5.26.58,7.85s.79,5.25,1.37,7.82A79.75,79.75,0,0,0,18,260.75c.86,2.57,1.86,5.12,3,7.59a79.55,79.55,0,0,0,3.79,7.41c1,1.63,3.76,6.36,4.75,7.89s4.39,6.4,5.58,8.1c1.75,2.42,3.64,4.91,5.57,7.31s3.9,4.75,5.92,7,4.11,4.51,6.23,6.68,4.29,4.26,6.5,6.31,4.47,4,6.77,5.95,4.65,3.79,7,5.58,4.8,3.54,7.26,5.22,4.95,3.28,7.47,4.83,5.11,3,7.69,4.45,5.22,2.78,7.87,4.07,5.34,2.52,8,3.68,5.47,2.27,8.2,3.29,5.56,2,8.34,2.89,5.64,1.72,8.47,2.48,5.72,1.46,8.58,2.08,5.76,1.18,8.67,1.67,5.82.91,8.74,1.26,5.89.63,8.81.83,5.91.35,8.85.41c1.36,0,2.72.05,4.09.05,1.6,0,3.2,0,4.79-.06,3-.08,5.94-.23,8.89-.45s6-.52,8.89-.88,6-.82,8.88-1.33,5.91-1.1,8.84-1.76,5.9-1.41,8.79-2.22,5.86-1.71,8.73-2.67,5.8-2,8.64-3.12,5.74-2.33,8.56-3.59,5.67-2.64,8.44-4.06,5.59-2.95,8.32-4.52,5.44-3.23,8.08-4.94,5.22-3.48,7.73-5.29c2-1.42,3.93-2.89,5.85-4.39-1.18.31-2.35.6-3.52.86-3.06.69-6.2,1.24-9.31,1.63s-6.24.61-9.35.69c-.83,0-1.67,0-2.51,0-2.26,0-4.54-.08-6.81-.24-3.07-.22-6.17-.59-9.21-1.1s-6.08-1.17-9.05-2-5.94-1.74-8.83-2.82a92.55,92.55,0,0,1-8.52-3.66c-2.79-1.35-5.54-2.86-8.17-4.47-.69-.42-1.36-.88-2-1.31A137.68,137.68,0,0,1,46.22,183.53Z" style="fill: rgb(29, 145, 92);" transform="matrix(1, 0, 0, 1, -771.64679, 25.373386)"/>
  <path class="b" d="M183.78,46a137,137,0,0,1,80.86,26.28c-.27-2.5-.65-5-1.15-7.43-.53-2.61-1.21-5.23-2-7.78a79,79,0,0,0-2.73-7.45c-1-2.41-2.16-4.8-3.41-7.09s-2.61-4.54-4.07-6.7-3-4.25-4.67-6.25-3.41-3.93-5.25-5.77-3.77-3.59-5.76-5.24-4.1-3.22-6.25-4.67-4.41-2.83-6.7-4.07-4.69-2.4-7.09-3.41a79,79,0,0,0-7.45-2.73c-2.55-.79-5.16-1.47-7.77-2A80.79,80.79,0,0,0,192.28.42,82.13,82.13,0,0,0,184,0c-1.9,0-7.39.08-9.21.17S167,.77,165,1c-3,.3-6.08.69-9.12,1.16s-6.06,1-9.05,1.61-6,1.3-8.89,2.06-5.85,1.58-8.73,2.47-5.72,1.86-8.53,2.89-5.61,2.13-8.35,3.29-5.47,2.4-8.14,3.69-5.34,2.65-7.93,4.05-5.18,2.9-7.7,4.43-5,3.13-7.46,4.78-4.86,3.37-7.21,5.13S69.17,40.11,66.91,42s-4.51,3.81-6.68,5.78-4.31,4-6.38,6.09-4.12,4.22-6.09,6.38S43.85,64.64,42,66.91s-3.71,4.6-5.46,6.94S33,78.63,31.39,81.06s-3.26,5-4.78,7.46-3,5.11-4.42,7.7-2.78,5.26-4.06,7.93-2.53,5.41-3.69,8.14-2.26,5.55-3.29,8.34-2,5.69-2.89,8.54S6.54,135,5.79,137.9s-1.45,5.92-2,8.89-1.16,6-1.62,9.05S1.26,162,1,165s-.55,6.23-.71,9.34S0,180.7,0,183.85s.08,6.33.24,9.46.4,6.26.71,9.34c.25,2.42.54,4.86.88,7.26.32-1.16.66-2.32,1-3.47.94-3,2-6,3.25-8.88s2.58-5.71,4.07-8.45,3.1-5.4,4.84-8,3.59-5.05,5.56-7.43,4.05-4.68,6.23-6.86,4.48-4.27,6.85-6.23,4.88-3.83,7.43-5.55,5.25-3.37,8-4.84c.46-.26,1-.48,1.42-.73A137.62,137.62,0,0,1,183.78,46Z" style="fill: rgb(0, 80, 143);" transform="matrix(1, 0, 0, 1, -771.64679, 25.373386)"/>
  <path class="d" d="M367.71,180.05c-.07-2.94-.21-5.92-.41-8.85s-.49-5.9-.84-8.81-.77-5.87-1.25-8.74-1-5.8-1.67-8.67-1.33-5.76-2.08-8.58-1.6-5.68-2.49-8.47-1.86-5.59-2.89-8.34-2.13-5.5-3.28-8.2-2.4-5.4-3.68-8-2.66-5.3-4.07-7.87-2.91-5.16-4.46-7.69-3.16-5-4.83-7.48-3.43-4.89-5.21-7.25-3.67-4.74-5.59-7S321,61.45,319,59.26s-4.17-4.39-6.32-6.5-4.41-4.22-6.67-6.23-4.65-4-7-5.92-4.88-3.82-7.38-5.62-5.11-3.59-7.73-5.28-5.36-3.37-8.08-4.94-5.53-3.1-8.32-4.53-5.61-2.78-8.45-4c-2.21-1-4.47-2-6.72-2.87.85.86,1.69,1.73,2.51,2.62,2.13,2.31,4.17,4.75,6.06,7.25s3.65,5.09,5.28,7.74,3.12,5.39,4.48,8.17,2.57,5.64,3.65,8.53,2,5.86,2.82,8.83,1.46,6,2,9.05.88,6.14,1.1,9.21c.16,2.27.24,4.57.24,6.85,0,.82,0,1.65,0,2.47,0,.49-.06,1-.08,1.49a137.58,137.58,0,0,1-41,223.88l.22.11c2.48,1.11,5,2.1,7.6,3a78.19,78.19,0,0,0,7.73,2.15c2.57.58,5.2,1,7.82,1.37s5.23.52,7.85.59l2.09,0c1.91,0,3.83-.07,5.73-.2,2.59-.18,5.2-.49,7.76-.92s5.11-1,7.61-1.66,5-1.47,7.42-2.37,4.84-1.94,7.18-3.08,4.65-2.4,6.87-3.76,4.42-2.86,6.5-4.44a77.78,77.78,0,0,0,6.09-5.09A80.27,80.27,0,0,0,338.51,283a81.82,81.82,0,0,0,4.52-7c.93-1.65,3.62-6.43,4.46-8.06s3.35-7,4.22-8.88c1.23-2.74,2.43-5.61,3.55-8.48s2.16-5.74,3.13-8.64,1.85-5.82,2.67-8.73,1.55-5.87,2.21-8.79,1.25-5.89,1.77-8.84,1-5.93,1.32-8.88.66-5.93.88-8.89.38-5.94.45-8.89c0-1.56.06-3.14.06-4.72C367.75,182.82,367.74,181.43,367.71,180.05Z" style="fill: rgb(230, 178, 82);" transform="matrix(1, 0, 0, 1, -771.64679, 25.373386)"/>
</svg>