<?xml version="1.0" encoding="utf-8"?>
<!-- Generator: Adobe Illustrator 26.0.3, SVG Export Plug-In . SVG Version: 6.00 Build 0)  -->
<svg version="1.1" id="master_logo" xmlns="http://www.w3.org/2000/svg" xmlns:xlink="http://www.w3.org/1999/xlink" x="0px"
	 y="0px" viewBox="0 0 589.9 190.6" style="enable-background:new 0 0 589.9 190.6;" xml:space="preserve">
<style type="text/css">
	.st0{fill:#FFFFFF;}
	.st1{fill:#FFD74F;}
	.st2{fill:#B71234;}
	.st3{fill:#231F20;}
	.st4{fill:none;}
</style>
<g>
	<g>
		<polygon class="st0" points="145.9,72.1 157.9,72.1 168.3,106.4 179.7,72 189.2,72 200.6,106.4 211.1,72.1 222.7,72.1 
			205.4,123.1 195.7,123.1 184.3,90 172.9,123.1 163.2,123.1 		"/>
		<path class="st0" d="M252,101.9l-6.7-16.4l-6.7,16.4H252z M240.3,72.1h10.3l21.7,51h-11.6l-4.6-11.4h-21.4l-4.6,11.4h-11.4
			L240.3,72.1z"/>
		<polygon class="st0" points="284.4,82.8 269,82.8 269,72.5 310.9,72.5 310.9,82.8 295.5,82.8 295.5,123.1 284.4,123.1 		"/>
		<polygon class="st0" points="319.4,72.5 357.5,72.5 357.5,82.4 330.4,82.4 330.4,92.6 354.3,92.6 354.3,102.6 330.4,102.6 
			330.4,113.2 357.9,113.2 357.9,123.1 319.4,123.1 		"/>
		<path class="st0" d="M392.3,97.1c5.4,0,8.5-2.9,8.5-7.2v-0.1c0-4.8-3.3-7.2-8.8-7.2h-11v14.5H392.3z M369.9,72.5H393
			c6.4,0,11.4,1.8,14.7,5.1c2.8,2.8,4.3,6.8,4.3,11.5v0.2c0,8.2-4.4,13.3-10.8,15.7l12.3,18.1h-13l-10.8-16.2H381v16.2h-11.1V72.5z"
			/>
		<polygon class="st0" points="424.3,72.5 435.5,72.5 435.5,113 459.2,113 459.2,123.1 424.3,123.1 		"/>
		<path class="st0" d="M503,97.9v-0.1c0-8.7-6.4-15.9-15.3-15.9c-9,0-15.2,7.1-15.2,15.8v0.1c0,8.7,6.4,15.9,15.3,15.9
			C496.8,113.7,503,106.6,503,97.9 M460.9,97.9v-0.1c0-14.4,11.3-26.2,27-26.2c15.6,0,26.8,11.6,26.8,26v0.1
			c0,14.4-11.4,26.2-27,26.2C472.1,123.9,460.9,112.3,460.9,97.9"/>
		<path class="st0" d="M559.9,97.9v-0.1c0-8.7-6.4-15.9-15.3-15.9c-9,0-15.2,7.1-15.2,15.8v0.1c0,8.7,6.4,15.9,15.3,15.9
			C553.7,113.7,559.9,106.6,559.9,97.9 M517.8,97.9v-0.1c0-14.4,11.3-26.2,26.9-26.2c15.6,0,26.8,11.6,26.8,26v0.1
			c0,14.4-11.3,26.2-27,26.2C529,123.9,517.8,112.3,517.8,97.9"/>
		<g>
			<path class="st0" d="M174.2,46.9V33.6h5.1v13.2c0,3.8,1.9,5.8,5,5.8c3.1,0,5-1.9,5-5.6V33.6h5.1v13.2c0,7.1-4,10.5-10.2,10.5
				C178,57.3,174.2,53.8,174.2,46.9z"/>
			<path class="st0" d="M208.1,33.6h4.7l10.9,14.4V33.6h5.1v23.3h-4.4l-11.3-14.8v14.8h-5.1V33.6z"/>
			<path class="st0" d="M243.4,33.6h5.1v23.3h-5.1V33.6z"/>
			<path class="st0" d="M261.1,33.6h5.7l6.1,16.4l6.1-16.4h5.5l-9.4,23.5h-4.5L261.1,33.6z"/>
			<path class="st0" d="M296.9,33.6h17.6v4.6H302v4.7h11v4.6h-11v4.9h12.7v4.6h-17.7V33.6z"/>
			<path class="st0" d="M327.9,33.6h10.7c3,0,5.3,0.8,6.8,2.4c1.3,1.3,2,3.1,2,5.3v0.1c0,3.8-2,6.1-5,7.2l5.7,8.3h-6l-5-7.5h-4v7.5
				h-5.1V33.6z M338.2,44.9c2.5,0,3.9-1.3,3.9-3.3v-0.1c0-2.2-1.5-3.3-4-3.3h-5.1v6.7H338.2z"/>
			<path class="st0" d="M359.2,53.5l3-3.6c2.1,1.7,4.3,2.8,7,2.8c2.1,0,3.4-0.8,3.4-2.2v-0.1c0-1.3-0.8-2-4.7-3
				c-4.7-1.2-7.7-2.5-7.7-7.1v-0.1c0-4.2,3.4-7,8.2-7c3.4,0,6.3,1.1,8.7,3l-2.7,3.9c-2.1-1.4-4.1-2.3-6.1-2.3c-2,0-3,0.9-3,2v0.1
				c0,1.5,1,2,5,3.1c4.7,1.2,7.4,2.9,7.4,7V50c0,4.6-3.5,7.2-8.6,7.2C365.5,57.2,362,56,359.2,53.5z"/>
			<path class="st0" d="M391.1,33.6h5.1v23.3h-5.1V33.6z"/>
			<path class="st0" d="M416.2,38.3h-7.1v-4.7h19.3v4.7h-7.1v18.6h-5.1V38.3z"/>
			<path class="st0" d="M447.7,47.7l-9-14.1h6l5.6,9.4l5.7-9.4h5.8l-9,14v9.3h-5.1V47.7z"/>
			<path class="st0" d="M490.9,45.3L490.9,45.3c0-6.7,5.2-12.1,12.4-12.1s12.4,5.4,12.4,12v0.1c0,6.6-5.2,12.1-12.4,12.1
				C496,57.3,490.9,51.9,490.9,45.3z M510.3,45.3L510.3,45.3c0-4.1-2.9-7.4-7.1-7.4c-4.1,0-7,3.3-7,7.3v0.1c0,4,2.9,7.3,7.1,7.3
				C507.4,52.6,510.3,49.3,510.3,45.3z"/>
			<path class="st0" d="M526.7,33.6h17.7v4.7h-12.6v5h11.1v4.7h-11.1v9h-5.1V33.6z"/>
		</g>
	</g>
	<g>
		<g>
			<path class="st0" d="M74.8,161.8l-1.4-0.6c-15.1-7-27.3-17.2-35.3-29.4C19,102.5,18.4,72.1,17.7,40.1c-0.1-2.4-0.1-4.9-0.2-7.3
				l-0.1-3.3h114.6l-0.1,3.3c-0.1,2.5-0.1,4.9-0.2,7.4c-0.7,32.1-1.3,62.4-20.4,91.7c-8,12.2-20.1,22.4-35.2,29.4L74.8,161.8z"/>
		</g>
		<path class="st1" d="M74.6,68.9l-44.9,35.4c-7.2-22.4-7-45.7-7.6-69.5h104.8c-0.6,23.9-0.3,47.1-7.6,69.5L74.6,68.9z"/>
		<path class="st1" d="M110.9,123.4c-1.1,2-2.3,3.9-3.6,5.9c-8,12.3-19.8,21.3-32.9,27.4c-13.1-6.1-25-15.1-33-27.4
			c-1.2-1.9-3.5-5.7-3.5-5.7l36.5-29.2L110.9,123.4z"/>
		<path class="st2" d="M43.8,52.7c-5.3-1.1-10-5.1-8.9-10.1c0,0-0.2-1.3-0.7-1.5c0,0-0.1-0.2-0.2-0.2c-0.2-0.1-0.4-0.1-0.5-0.3
			c-0.1,0-0.3-0.1-0.3-0.2c-0.1,0.2-0.1,0.4-0.2,0.6c0,0.1-0.1,0.2-0.2,0.2c-0.1,0-0.1,0.1-0.2,0.2c-0.4,0.4-0.2,1-0.1,1.5
			c0,0.1,0.1,0.3-0.1,0.3c-0.2,0,0,0-0.2-0.2c0,0-0.1-0.1-0.2-0.1c-0.1,0-0.4-0.1-0.5-0.2c-0.1-0.1,0-0.1-0.1-0.2
			c-0.2-0.2-0.2-0.5-0.3-0.8c0-0.1-0.1-0.4-0.1-0.4c0-0.3-0.9-0.9-0.5-0.6c0.1,0.1,0-0.1-0.5-0.3c-0.3-0.1-0.6-0.1-1,0
			c-0.1,0-0.1,0.1-0.2,0.1c-0.3,0.3-0.7,0.6-1.1,0.6c0.1,0,0.1,0,0.1,0.1c0.2,0.3,0.1,0.6,0.2,0.9c0.1,0.3,0.3,0.5,0.6,0.7
			c0.2,0.2,0.7-0.1,0.8,0.3c0,0,0.4,0.1,0,0.5c-0.7,0.7-1.5,0.1-2.1,1.5c0.9-0.4,1,1,1.4,1c1.7,0.2,3,0.5,4,2.3
			c0.6,1.1-1,1.1,0.4,1.4c0.7,0.1,1.2,0.5,1.6,1c0.4,0.5,0.4,1.3,0.9,1.8c0.3,0.4,0.4,0.4,0.8,0.7c0.2,0.1,0.7,0.3,0.9,0.3
			c0.2,0.1,0.3,0.2,0.5,0.2c0.2,0.1,0.4,0.1,0.6,0.3c0.1,0.1,0.5,0.2,0.6,0.4c0.1,0.3,0,0.6,0.2,0.9c0,0.1,0.3,0,0.4,0
			c0.1,0,0.3,0,0.3,0c0.3-0.1,0.4-0.1,0.7-0.1c0.4,0,0.3,0.1,0.9,0.1c0.1,0,0.2,0.1,0.3,0.1c0.1,0,0.3,0.1,0.3,0
			c0.2-0.5,0.4-1,0.7-1.4c0.3-0.5,0.3-0.5,0.6-1C43.4,53.1,43.9,52.7,43.8,52.7"/>
		<path class="st2" d="M30.6,53.3c1.6,0.8,1.3,2.9,2.7,3.6c2.5,1.2,5.5,2,8.1,0.7c-0.6,1.8,0.1,3.4-0.2,3.6c-0.8,0.7-3.4-0.1-5-0.8
			c-1.1-0.4-2,1.2-3.3,1.1c0.1-0.1,0.2-0.6,0.1-0.8c-0.2-0.6-0.3-0.8-1.3-0.7c-0.6,0.1-0.4,0.6-1.3,1.1c-0.4-0.2-1.2-0.5-1.3,0.2
			c-0.1,0.3-0.7-1.2-0.6-1.4c0.6-1.1,0.8-1.4,0.7-1.6c-0.1-0.4-1.4-0.9-1.6-0.6c-0.4,0.7-1.7-2.4,2-2.2c-1-0.6-0.9-0.8-0.6-1.5
			c0-0.1-0.3-0.5-0.6-0.2c-0.1-0.3,0.1-0.6,0.3-0.6C29.4,53,30,53,30.6,53.3"/>
		<path class="st2" d="M38,45.7c2.2,0.5,5.6-2.4,7.6,1C44.1,46.2,39.8,48.5,38,45.7"/>
		<path class="st2" d="M56.8,50.7c0,2.9-3.1,6.1-0.6,8.9c-1,0-2.2-0.4-2.9-0.9c-0.4-0.3-0.3,1.4-0.3,1.7c0,0.3-1.9-1.8-2.6-1.3
			c-2,1.5-2.9,2.1-5.9,2.2c-0.8,0-1.3,0.7-1.5,1.4c-0.7-1.4-0.2-4.6,0.2-6c1.1-3.9,5-5,8.1-6.9c2.2-1.3,3.2-3.9,3.1-6.5
			C55.9,45.3,56.8,48.2,56.8,50.7"/>
		<path class="st2" d="M42.5,83.6c0.4,0.1,0.1,0.4-0.1,0.5c-0.3,0.2-0.5,0.5-0.7,0.8c-0.1,0.2-0.3,0.5-0.2,0.8
			c0,0.2,0.1,0.4,0.2,0.6c0,0.1,0.2,0.2,0.2,0.3c0,0,0.2,0.2,0.2,0.2c-0.1-0.3,0.3-0.6,0.4-0.5c1.9,1.1,2-1.1,3.2-1.9
			c0.5-0.3,1.6,0.1,1.3,1.1c1.2-0.6,1.5-2.2,2.4-3.1c2-2.2,4.8-3.6,7.4-4.8c-1-1-2.4-1.9-3.1-3c-0.4-0.6-0.8-1.7,0-1.5
			c3.2,0.8,5.1-1.1,5.4-3.7c4.8,0.6,6.1-3.9,6.7-7.4c0.3-1.7,1.2-1.8,0.2-4.7c-0.4-1.2,2.1-1.6,1.7-3.6c-0.1-0.6-0.8-1.1-1.2-1.2
			c0.4,1.1-1.5,1.4-1.7,1.8c-0.3,0.7-0.8,1.3-0.8,2c-1.6-2.2-0.3-4.8,1.2-6.8c2.1-3,6.6-1.4,8.5,0.5c0-1-0.7-2.2-1.3-2.8
			c1.8-0.2,3.7,0.8,6-0.4c1.4-0.7,2.8-1.4,3.4-3c-2.9,0.4-6.9-1.9-9.6-2.3c-4.9-0.9-8.2,2.5-10,6.5c-1.8,4-0.6,7,1.3,10
			c0.5,0.8-1.7,0.3-2.5,0.7c-0.8,0.4-1.2,1.5-1,2.4c1.1-1.1,3.8-0.4,4.1,1.5c0.3,2.6-2.3,6.4-4.8,5.3c-2.7-1.2-4.3-4.1-5.2-7.3
			c-2.3,2-6.6,0.3-8.6,2.3c-1.9,1.9,3,3.1,4.8,4c0.7,0.3,1.4,1,1.3,1.9c-3-1.7-6.5,0.2-6.4,3.4c0.1,2.4,3,3.8,5.4,4
			c1,0.1,1.6,1.2,0.4,2c-2.1,1.3-4.5,2.8-6.8,0.4c-0.4-0.4-1.8-0.2-2,0.6c-0.1,0.4-0.2,0.9-0.1,1.3c0.1-0.2,0.3-0.5,0.5-0.5
			c0.2,0,0.5,0.3,0.5,0.4c-0.2,1.2-1.8,0.4-2.2,1.3c0,0,0,0,0,0.1c0,0.1-0.1,0.1-0.1,0.2c-0.3,0.6-0.7,1,0,1.5
			c0-0.1,0.4,0.5,0.4,0.6c0-0.6,0.6-0.6,0.6-0.6l0.3,0L42.5,83.6z"/>
		<path class="st2" d="M32.5,72.5c-0.3-0.1-0.6,0-0.9,0.2c-0.2,0.1-0.4,0-0.5,0.2c-0.1,0.1-0.1,0.2-0.1,0.4c0,0.1,0.1,0.2,0.1,0.2
			c-0.4,0-0.8-0.3-1.1-0.6c-0.1-0.1-0.2-0.2-0.3-0.3c-0.1-0.1-0.1-0.2-0.1-0.3c0-0.1,0-0.2,0-0.3c0-0.3,0-0.6,0.1-0.8
			c0.1-0.1,0.1-0.2,0.2-0.3c0.1-0.1,0.1-0.1,0.2-0.2c0.2-0.2,0.4-0.4,0.7-0.4c0.4-0.1,0.8-0.1,1.2,0.1c0.3,0.1,0.7,0.1,1,0.2
			c0.2,0,0.5-0.4,0.3-0.5c-1-0.2-1-0.5-1.4-1.5c-0.2-0.2-0.4,0-0.5,0.1c0-2,2.3-2.1,3.3-1.3c1.4,1.2,0.4,3.4,2.1,4
			c0.9,0.3,1.9,0.6,2.8,0.2c1.7-0.7,0-2.4,0.6-3.9c1.1-2.9,3.6-3.1,6.5-0.3c-2.6,0.9-3.9,4.4-2.4,6.6c-2.3-0.9-5.2,0.6-6.9,1.7
			c1.5-1.5-0.6-2.7-1.2-2.5l-0.6,0.4c-0.3,0.4-0.3,0.8-0.7,1.2c-0.2,0.2-0.3,0.2-0.6,0.3c-0.4,0.1-0.6,0.1-1-0.2
			c-0.1,0-0.3,0-0.3,0.1c-0.2,0.2,0,0.3,0,0.4c0,0-0.3-0.2-0.3-0.3c-0.2-0.2-0.5-0.3-0.6-0.5c-0.1-0.2-0.2-0.8-0.1-1.1
			c0.2-0.3,0.5-0.4,0.7-0.6C32.8,72.8,32.6,72.5,32.5,72.5"/>
		<path class="st2" d="M88.9,46.6c0.2,0.1,0,0.5-0.3,0.6c-0.3,0.1-0.7,0-0.9,0.1c-1.1,0.4-1.1,3.1-1,2.8c0.2-0.3,1-0.1,1.5,0
			c0.9,0.2,1.5-1.6,2.1-1.5c1.3,0.1,2.6,1.8,3.1,2.9c0.1,0.2-0.6,0.2-0.6,0.9c1.8-0.2,3.3,1,4.6,2.1c0.6-1.1,1.3-1.8,2-2.5
			c-2.7-2.6-8.1-3.5-7.3-8.3c0.1-0.6-0.6-1.2-0.9-1.5c-0.4-0.3-1.2-0.4-1.6-0.5c0.5,1.1-0.4,1.2-0.3,2.9c0,0.1-0.2,0-0.2,0
			c-0.3-0.1-0.6-0.3-0.9-0.5c-0.3-0.2-0.5-0.1-0.9-0.1c-0.2,0-0.4,0.1-0.5,0.2c-0.3,0.2-0.4,0.4-0.6,0.7c0,0-0.1,0.1-0.1,0.1
			C86.1,45,86,45.2,86,45.3c0.1,0,0.6,0,0.7,0.1c0.1,0.2,0.1,0.4,0.3,0.6c0.2,0.2,0.3,0.2,0.6,0.4c0.4,0.2,0.8,0.3,1.3,0.2"/>
		<path class="st2" d="M96,44.7c1.7-0.1,3.4-1.4,5.3,0.8c-0.3-0.2-0.8-0.2-1-0.1c-2.1,1.7-4.6,1.1-5.9-1
			C94.9,44.4,95.5,44.7,96,44.7"/>
		<path class="st2" d="M103.3,50.9c2.8-1.4,5.6-2.5,6.8-6c0.2-0.7,0.7,1,0.8,1.1c1.5,4.2-1.5,8.4-0.9,12.7c-1-0.6-2.1-1-3.2-1
			c-3.8-0.1-4.7,2.2-5,2c-1.1-1.1-4.1-2-3.9-1.8C96.2,56.2,101.4,51.8,103.3,50.9"/>
		<path class="st2" d="M95.7,79c0.4,0.6-0.1-0.3,0.3,0.7c2-0.8,4.1-1.8,6.3-0.9c-1-4.5,2.3-5.6,2.6-6.3c0.4-1.1-1.8-3.3-3.5-2.7
			c-2.1,0.8-1.2,3.5-1.6,5.3c-0.2,1-1.5,1.8-2.6,1.4c-1.8-0.6-2.5-2.3-2.9-4.1c-0.3-1.2-2.7-1.4-3.2-0.4c-1.5,2.9,0.9-0.3,0.7,1.8
			c0,0.4-1.7,0.1-2.1,1.4c-0.3,0.9,0.6,1.5,1.6,1.8c0.2,0.1-0.2-0.4,0.1-0.5c0.2-0.1,1,0.3,0.9,0.4c-1,0.6-1.3,2,0.5,2.7
			c0,0-0.1-0.5,0-0.6C94.2,77.9,95.7,79,95.7,79"/>
		<path class="st2" d="M65.3,107.7c1.7,0.8,2.2-0.1,4.4-0.4c0.3-0.1,1.6,0.8,1.9,1.2C69.4,108.9,66.7,110.8,65.3,107.7"/>
		<path class="st2" d="M64.4,109.5c-0.1-0.1-0.2-0.2-0.4-0.2c-0.1-0.1-0.3-0.1-0.4-0.1c0,0-0.3-0.1-0.4-0.1c0,0.1,0.1,0.4,0,0.4
			c-0.2,0.2-0.2,0.1-0.4,0.3c-0.1,0.1-0.1,0.2-0.1,0.3c0,0.2-0.1,0.4-0.1,0.6c0,0.1,0,0.4,0.1,0.5c0,0.1,0.1,0.3,0.2,0.4
			c0,0,0.3,0.3,0.3,0.3c0.3,0.3,0.1,0.1,0.4,0.5c0.2,0.2-0.1,0.5-0.3,0.5c-1.3-0.4-1.5-1.9-2.7-2.3c-0.9-0.3-2.1,0.3-2.2,1.6
			c0.3-0.1,0.6,0,0.7,0.3c0.3,1.3,2.3,0.5,2.3,1.5c0,0.6-1.5-0.1-2,0.3c-0.8,0.5-0.9,2-0.2,2.9c0.7-0.7,1.6,0.3,2.3-0.2
			c0.5-0.3,0.7-0.8,1.1-1c1.5-0.7,1.9,0.7,1.6,2.1c0.8-0.4,2.7-0.8,3.1-0.9c0.8-0.2,0.8-2,1.8-2.7c-1.4,0-3-0.6-3.4-1.9
			c0-0.1,0.1-0.3,0.1-0.5c0-0.5,0-1-0.2-1.5c0-0.1-0.1-0.1-0.1-0.2c-0.1-0.1-0.1-0.2-0.2-0.2c-0.1-0.2-0.3-0.3-0.5-0.4
			C64.5,109.6,64.4,109.6,64.4,109.5"/>
		<path class="st2" d="M54.4,118.9c0.6,1.2-2.3-0.7-3.4,1c-0.4,0.6-0.2,1.8-0.2,2.5c0.7-0.6,1.3,0.6,2.6-0.6
			c0.1,0.1,0.3,0.2,0.1,0.4c-0.5,0.5-0.7,1.1-0.5,1.6c0.2,0.4,1.2,1.1,1.2,1c0.1-0.8,1.4,0,1.6-1.5c0.1-0.6,0.3-1.6,1.2-1.3
			c0.8,0.3,1,1.2,0.8,2.2c1.3-0.4,3.6-1.7,4.9-0.8c1.8,1.3,4.8,1.9,6.9,2.5c-1.4-1-1.9-3.5-1.6-5.2c-3.4,0.7-6.9,0.5-10-0.9
			c-0.8-0.4-0.7-1.4-1-2.2c-0.3-0.9-1.4-1.8-2.5-1.7c-0.6,0-1.9,1.2-1.6,1.3c-0.1,0-0.1,0.2-0.1,0.3c0.3-0.2,0.6,0,0.7,0.3
			c0.1,0.2,0.2,0.4,0.3,0.6C53.9,118.6,54.3,118.7,54.4,118.9"/>
		<path class="st2" d="M62.4,137.2c0.7-0.8,1.2-0.4,1.5-0.4c0.7,0,0.6,1,0.6,1.6c2.7-1.3,5.2-3.1,8.3-2.5c-1.8-1.9-1.2-6,1.4-6.5
			c0,0-1.7-0.3-1.8-0.4c-2.2-1.4-5-2.8-6.5,0.2c-0.7,1.5,0.6,2.7,1.7,3.9c0.2,0.2-0.1,0.4-0.4,0.4c-2.4,0.6-7,1-7.2-2.7
			c0-0.4-1-0.7-1.6-0.7c-1.8,0.1-1.8,2.4-1.6,2.2c0.4-0.3,1.6-0.2,1.5,0.7c-0.1,0.9-1.8-0.5-2.5,0.4c-0.6,0.7-0.5,1.9-0.1,2.7
			c-0.1-0.3,0.3-0.5,0.4-0.5c1.9-0.3,2,0.3,1.4,2.2c0,0.1,0.6,1.3,1,1.4c0,0,0-0.3,0-0.3c0.1-0.1,0.1-0.2,0.2-0.2
			c0.2-0.1,0.4-0.1,0.6-0.1c0.1,0,0.2-0.1,0.3-0.1c0.1-0.1,0.2-0.2,0.4-0.4c0.4-0.6,0.8-1.3,1.6-1.3C61.9,136.9,62.1,137,62.4,137.2
			"/>
		<path class="st2" d="M81.8,145.7c1.7-1.7,3-4,4.8-5.6c-2-1.2-4.5-2.4-4.8-5.1c0-0.2,0.3-0.4,0.4-0.3c2.8,1.6,6.6,1.7,8.6-1.2
			c1.6-2.3,2.3-6.1,5.5-6.3c-1.1-2,0.1-4.4,1.9-5.4c-0.6-0.2-1.3-0.7-2-0.6c-0.8,0.1-1.1,1.2-2.1,1.4c1.4-4.9-1.3-11.6-6.7-11.5
			c-1,0-2.3,0.8-2.6,1.9c-0.3,1-0.5,2.3,0.3,3.2c1.7,2.1,3,4.4,2.5,7.1c1.2-1.1,2.4-2.7,2.4-4.3c0-0.4,0.8-0.1,0.9-0.3
			c1.5-2.1-0.9-3.5-2.2-4.8c-0.4-0.4,0.5-0.9,0.7-0.9c4.6,1.4,5,7,3.1,10.7c-0.5-0.7-2.5-0.4-3.1-0.7c2.1,1.1,1.6,1.2,1.5,1.6
			c-0.2,0.6-2.1,0.4-2.5,0.8c-0.6,0.8-1.1,1.2-1.2,3.9c0.9-1,2.1-2.4,3.3-1.8c2.7,1.4-0.1,6-2.7,6.8c-2.2,0.7-4.2,0-5.5-1.9
			c-1.9-2.7-0.5-6.1-1.9-8.8c-1.2,0.3-0.9,1.8-1.5,1.5c-2.1-1-3.3-3.2-4.9-5.1c-0.6,0.2-0.9,0.8-1.5,0.8c-0.9,0-2.6-0.3-3,0.1
			c-0.4,0.5-0.7,4.4,3,5.8c2.5,1,4.6,1.8,6.2,3.8c-1.1,0.1-1.4-0.4-2.3-0.5c-0.9,0-1.4,0.3-2.1,0.6c-0.6,0.3-1.4,1.5-1.2,2.5
			c0.6,4.7,6.1,4.7,8.6,7.7c0.4,0.5-0.7,2.5-1.7,3.3c-0.9,0.7-3-1.1-2.6-2.5c0.3-1.2-2.6-2-3.6-0.6c0.4,0,0.5,0.2,0.5,0.4
			c-0.2,1.1,1.2,1.1,1.1,1.7c-0.1,0.8-0.7-0.3-1.3-0.4c-1.2-0.2-2.3,0.2-3,1.1c-0.2,0.3-0.7,0.7-0.5,1.2c0.9-0.4,1.4,1,2.2,0.5
			c0.5-0.3,0.9-0.7,1.5-0.5c0.2,0.1,0.5,0.4,0.3,0.5c-1.6,1-2.9,2.5-1.7,4.1c0-0.4,0.3-0.7,0.6-0.7c0.5-0.1,1.1,0.2,1.6,0
			c0.8-0.3,0.4-1,0.7-1.5c0.4-0.8,2-2.2,2.8-1.2c0.2,0.2,0,0.9-0.4,0.9c0.5,0,0.9,0.5,1.3,0.4c0.1,0,0.2,0,0.3-0.1
			c0.1,0,0.2-0.1,0.3-0.1c0.2-0.2,0.4-0.4,0.4-0.7c0.3,0,0.8,0.1,1-0.2c0.2-0.3,0.5-0.5,0.7-0.7"/>
		<path class="st2" d="M74,112c3-0.8,6.3-2.4,7.1-5.7c0.9,0.5,1.2,1.8,1.2,2.6c0.1,4.2-1.8,7.8-0.9,12.2c0.1,0.5,1,2,0.6,1.9
			c-0.5-0.2-1.6-1.2-2.1-0.8c-0.7,0.6-0.7,1.5-1,1.3c-1.3-0.8-2.7-2-3.4-3.5c-0.2-0.6-0.1-1.8-0.3-1.6c-1,1.1-3.1,1.3-4.6,1.6
			c0.3-0.3,0.7-1.6,0.6-1.8c-1.2-0.6-2.9,1.4-2.9,1.2c0.1-0.7,0.1-0.9,0.2-1C69.4,115.5,71.1,112.8,74,112"/>
		<path class="st2" d="M51.7,40.8c0.8,0,1.4-0.5,1.8-1c0,0.4,0.6,1.1,0.4,1.5c-0.3,0.6-1,0.9-1.2,1.5c-0.3,1.1,0.6,2.2-0.1,3.3
			c-1.9,3.3-6.1,2.2-9,2.9c0.2-0.4,0-0.9-0.3-1c1.3,0.2,3-0.1,3.3-1.1c0.4-1.2,0.6-2.1,0.1-3c-0.9-1.6-2.8-0.9-4.3-0.3
			c-0.2-1,0.7-1.6,1.3-1.8c1.5-0.4,2.9-1.1,4.3-1.6C49.3,39.8,50.5,40.9,51.7,40.8 M49.6,42.5c0.1-0.1,0.2-0.1,0.2-0.2
			c-1.1-1.5-2.4-1.4-3,0C46.5,43.2,48.6,42.9,49.6,42.5"/>
		<path class="st2" d="M107.3,47c-0.4,0.4-1.1,0.3-1.6,0.7c-0.3,0.2-0.5,0.4-0.8,0.6c-0.1,0.1-0.6,0.3-0.7,0.3
			c-0.4,0.1-0.3,0.1-0.7,0.1c-0.2,0-0.3,0-0.6,0c-0.2,0-0.9,0-1.2,0c-0.5,0-0.6,0-1.2-0.1c-0.3,0-0.6-0.1-0.9-0.2
			c-0.2-0.1-0.4-0.1-0.6-0.1c0-0.2,0.1-0.5,0.2-0.6c0.2-0.2,0.3,0,0.6-0.1c0,0,0.5,0,0.5,0c0.1,0,0.2,0,0.2,0c0.1,0,0.3,0,0.4-0.1
			c0.2-0.1,0.3-0.1,0.5-0.2c0.1,0,0.1-0.1,0.2-0.1c0.1-0.1,0.3-0.2,0.4-0.3c0.3-0.4,0.5-0.8,0.6-1.2c0-0.4,0.1-0.7,0-1.1
			c0-0.1,0-0.1,0-0.2c0-0.3-0.2-0.6-0.3-0.8c-0.8-1.6-2.8,0-4.2-0.1c0-0.3,0-0.9,0.1-1.1c1-1.3,2.5-0.6,3.3-1.2
			c2.6-2,3.3-0.5,6.1,0.2c0.8,0.2,2-0.3,2.8-0.6c0.2-0.1,0.2,1.2,0.1,1.4c-0.3,0.9-1.2,0.8-1.5,1.6c-0.5,1.1-0.5,2.8-1.8,3.3
			 M105.3,41.9C105.5,41.8,105.2,42,105.3,41.9c-1.2-0.6-2.7-1.4-3.3,0.2C101.7,43.3,104.3,42.4,105.3,41.9"/>
		<path class="st2" d="M77.8,103.5c1.2,0.3,2.6,0.3,3.3-0.7c0.4,1.7-1.1,1.9-1.4,2.7c-0.4,1.2-0.4,2.5-1.6,3.1
			c-2.4,1.3-5.3,2.8-8.1,3c0-0.3-0.2-0.9,0.2-1c1,0,1.7-0.8,1.9-1.3c0.3-0.8,0-2.7-0.8-3.1c-0.8-0.4-1.5,0.2-2.3,0.6
			c-0.3-0.8,1-2.2,3-2.1c-0.1,0,1-1.2,1-1.1C74.5,102.6,76,103.1,77.8,103.5 M74.2,105.6c0.5,0.2,1.9-0.6,2.4-0.9
			c0.1-0.1,0.2-0.2,0.3-0.3c0,0,0,0,0,0c-0.4-0.1-0.8-0.1-1.2-0.2c-0.3,0-0.5-0.2-0.8-0.3c-0.1,0-0.1,0-0.2,0
			c-0.1,0-0.2,0.1-0.2,0.2c-0.1,0.1-0.3,0.1-0.5,0.2c-0.1,0.1-0.2,0.2-0.3,0.4c-0.1,0.2,0,0.5,0.1,0.6
			C73.9,105.5,74.1,105.6,74.2,105.6"/>
		<path class="st2" d="M114.9,91.9c0-0.4,1-1.6,1-2.5c0.1-3,1.9-4.4,1.9-7.6c0-0.8-3.4-1.6-3.6-3.4c-0.1-0.9-0.4-2.2,0.5-2.2
			c1.1,0,2.3-0.2,3.1-0.9c3.6-3.2,0.6-7.5,0.1-11.4c-0.1-0.8,1.5-2.7,1.4-3.2c-0.2-3.3-0.9-6.2,0.3-9.4c-0.9,0.8-1.2,2.2-1.9,2.8
			c-0.4,0.3-0.6-0.4-0.5-0.5c0.5-2.8,1.6-5.3,2.9-7.9c1.5-3.2,0.8-5.7-2.1-6.7c-2.6-0.9-5.1,1.6-5.4,4.1c-0.3,2.3,0.5,5,1,6.9
			c0.2,0.6,0.1,1.2,0.2,1.7c0.5-1.9,0.5-3.9,0.5-5.9c0-0.5,0.4-1.1,0.9-1.3c1.7-0.5,2.6,0.7,2.5,1.7c-0.4,3-1,5.3-1.7,8.3
			c-0.8,3.4,0.4,6.8,0.8,10.1c-1.3-0.8-2.7-0.8-3.2,1.2c-0.3,1.1,0.7,2.2,1,3.2c0-1.3,1.3-3.1,2.4-2.3c1.5,1,1.5,5.6,1.2,6.3
			c-0.7,1.4-1.9,2.3-3.5,1.8c-0.9-0.3-0.5-1.6-1.1-2.2c-2.9-3-4.2-6.6-4.5-10.8c0-0.6,0.3-2.2,0.2-2.2c-3.8-1.6-5.6,0-7.1,2.2
			c-0.3-0.7-1.7-1.6-1.8-1.4c-0.7,1.3-0.5,3.8,0.6,4.7c2.9,2.5,5.8,4.2,7.5,7.9c-1.8,0.2-3.5,0.7-4.2,2.6c-0.7,1.9-0.5,4.6,1.6,5.4
			c1.7,0.6,4.5-0.1,5.1,0c1.8,0.2,3.7,1.7,3.4,3.4c0,0.1-0.8,4-2.4,3c-0.9-0.5-0.4-2.6-1.8-3c-1.9-0.5-2.3,2.2-2.1,1.9
			c0.6-0.6,1,0.4,2.2,1c-3.9-0.8-2.7,2.7-2.6,2.3c0.2-0.6,0.9,0,2.3-0.1c0.1,0-0.3,0.3-0.3,0.3c-0.2,0.4-0.3,0.5-0.5,0.9
			c-0.1,0.2-0.1,0.4,0,0.6c0,0.2,0.1,0.4,0.2,0.5c0,0,0.1,0.1,0.1,0.1c0,0,0.1,0.1,0.1,0.1c0.1,0-0.1-0.3,0.2-0.3c0.1,0,0.2,0,0.3,0
			c0.1,0,0.2,0.1,0.3,0.1c0.1,0,0.2,0,0.3,0.1c0.3,0,0.4,0,0.6,0c0.2-0.1,0.4-0.1,0.6-0.2c-0.2,0.2,0.3-0.3,0.3-0.2
			c0.2-0.5,0.4-0.4,0.4-0.5c0.4-0.8,0.8-0.9,1.7-0.8c0.1,0,0.3,0.2,0.3,0.3c0.1,0.1,0.3,0.6,0.2,0.4
			C114.6,91.3,114.8,91.6,114.9,91.9"/>
		<path class="st2" d="M86.7,55.9c-0.2-0.2-0.3-0.5-0.5-0.7c0-0.1-0.1-0.1-0.1-0.2c-0.1-0.1-0.1-0.2-0.2-0.3
			c-0.2-0.6-0.1-1.2,0.4-1.6c0,0,0,0,0-0.1c0,0,0.1-0.1,0.1-0.1c0,0,0.1,0,0.1-0.1c0,0,0,0,0.1,0c0.1-0.1,0.1-0.4-0.1-0.4
			c0.2,0,0.3,0,0.5,0c0.1,0,0.1,0,0.2,0c0.6,0.1,1.4,0.4,1.6,1l0.2,0.2c0.6,1.5,0.4,5.2,4,6.1c1.9,0.5,3.7,1,5.6,1
			c-0.5,1.9-0.5,4.2,1,5.6c-2.1-1.2-3.6-0.9-5.4-2.7c-0.8-0.8-2.8-1.9-3.7-1.7c-0.4,0.1,0.5-1.2-0.3-1.5c-0.6-0.2-2.1-0.1-2.3,0.3
			c-1.2,1.9-2.5,1.9-3,2.2c0.5-0.4-2-2.5,1.1-3.6c0.3-0.1,0.4-0.8,0-1c-0.6-0.3-1.1,0.1-1.7,0.5c-0.7,0.4-0.9-1.1-1.9-0.5
			c-0.2-3.2,2.7-3.5,4.4-1.5c0.1,0.2,0.6,0,0.4-0.2L86.7,55.9z"/>
		<path class="st3" d="M21,33.7l0,1c0.1,2.4,0.1,4.7,0.2,7.1c0.6,30.8,1.2,59.9,19.5,87.9c7.5,11.5,19.1,21.1,33.4,27.8l0.4,0.2
			l0.4-0.2c14.3-6.6,25.8-16.3,33.3-27.8c18.2-28,18.8-57.1,19.5-87.9c0.1-2.4,0.1-4.8,0.2-7.1l0-1H21z M32.5,109.4l42-33.3
			l41.9,33.2c-1.1,2.7-2.2,5.5-3.6,8.2L74.6,87.1l-38.5,30.5C34.8,114.9,33.6,112.1,32.5,109.4z M106.5,128.7
			c-7.2,11.1-18.3,20.4-32,26.8c-13.8-6.5-24.9-15.7-32.1-26.8c-1.2-1.9-2.3-3.7-3.4-5.6l35.6-28.2L110,123
			C108.9,124.9,107.8,126.8,106.5,128.7z M125.7,41.9c-0.4,21.2-0.9,41.6-7.1,61.3l-44-34.9l-44.2,35c-6.3-19.7-6.7-40.2-7.1-61.4
			c0-2-0.1-4-0.1-6.1h102.7C125.8,37.8,125.7,39.9,125.7,41.9z"/>
	</g>
</g>
<g>
	<rect x="43" y="-4.5" class="st4" width="504" height="199.7"/>
</g>
</svg>
